<?xml version="1.0" encoding="UTF-8" standalone="no"?><svg width="1536" height="1024" xmlns="http://www.w3.org/2000/svg" stroke-linejoin="round" stroke-linecap="round" fill-rule="evenodd" fill="none"><rect x="0" y="0" width="1536" height="1024" fill="#FCF5E5"/><style><![CDATA[@import url("https://fonts.googleapis.com/css2?family=Neuton:wght@800&display=swap");]]></style><defs/><g><path d=" M 0,0"/><g transform="translate(937.567 569.992) rotate(-40 0 0) scale(1.519 1.519)"><path d=" M 0,0"/><g><path d=" M 0,0"/><path d=" M 75,0 Q 75,6.213 70.607,10.607 Q 66.213,15 60,15 L -30,15 Q -36.213,15 -40.607,10.607 Q -45,6.213 -45,0 L -45,-60 Q -45,-66.213 -40.607,-70.607 Q -36.213,-75 -30,-75 L 60,-75 Q 66.213,-75 70.607,-70.607 Q 75,-66.213 75,-60 L 75,0" fill="#CCCECE" stroke="#CCCECE" stroke-width="3" stroke-linejoin="round" stroke-linecap="butt" stroke-opacity="0.4"/><path d=" M -45,30 Q -45,36.213 -49.393,40.607 Q -53.787,45 -60,45 L -150,45 Q -156.213,45 -160.607,40.607 Q -165,36.213 -165,30 L -165,-60 Q -165,-66.213 -160.607,-70.607 Q -156.213,-75 -150,-75 L -60,-75 Q -53.787,-75 -49.393,-70.607 Q -45,-66.213 -45,-60 L -45,30" fill="#CCCECE" stroke="#CCCECE" stroke-width="3" stroke-linejoin="round" stroke-linecap="butt" stroke-opacity="0.4"/><path d=" M 195,30 Q 195,36.213 190.607,40.607 Q 186.213,45 180,45 L 90,45 Q 83.787,45 79.393,40.607 Q 75,36.213 75,30 L 75,-60 Q 75,-66.213 79.393,-70.607 Q 83.787,-75 90,-75 L 180,-75 Q 186.213,-75 190.607,-70.607 Q 195,-66.213 195,-60 L 195,30" fill="#CCCECE" stroke="#CCCECE" stroke-width="3" stroke-linejoin="round" stroke-linecap="butt" stroke-opacity="0.4"/><path d=" M 105,-90 Q 105,-83.787 100.607,-79.393 Q 96.213,-75 90,-75 L -60,-75 Q -66.213,-75 -70.607,-79.393 Q -75,-83.787 -75,-90 L -75,-180 Q -75,-186.213 -70.607,-190.607 Q -66.213,-195 -60,-195 L 90,-195 Q 96.213,-195 100.607,-190.607 Q 105,-186.213 105,-180 L 105,-90" fill="#CCCECE" stroke="#CCCECE" stroke-width="3" stroke-linejoin="round" stroke-linecap="butt" stroke-opacity="0.4"/><path d=" M -75,-90 Q -75,-83.787 -79.393,-79.393 Q -83.787,-75 -90,-75 L -270,-75 Q -276.213,-75 -280.607,-79.393 Q -285,-83.787 -285,-90 L -285,-180 Q -285,-186.213 -280.607,-190.607 Q -276.213,-195 -270,-195 L -90,-195 Q -83.787,-195 -79.393,-190.607 Q -75,-186.213 -75,-180 L -75,-90" fill="#CCCECE" stroke="#CCCECE" stroke-width="3" stroke-linejoin="round" stroke-linecap="butt" stroke-opacity="0.4"/><path d=" M -165,-210 Q -165,-203.787 -169.393,-199.393 Q -173.787,-195 -180,-195 L -270,-195 Q -276.213,-195 -280.607,-199.393 Q -285,-203.787 -285,-210 L -285,-270 Q -285,-276.213 -280.607,-280.607 Q -276.213,-285 -270,-285 L -180,-285 Q -173.787,-285 -169.393,-280.607 Q -165,-276.213 -165,-270 L -165,-210" fill="#CCCECE" stroke="#CCCECE" stroke-width="3" stroke-linejoin="round" stroke-linecap="butt" stroke-opacity="0.4"/><path d=" M 45,30 Q 45,36.213 40.607,40.607 Q 36.213,45 30,45 L 0,45 Q -6.213,45 -10.607,40.607 Q -15,36.213 -15,30 L -15,0 Q -15,-6.213 -10.607,-10.607 Q -6.213,-15 0,-15 L 30,-15 Q 36.213,-15 40.607,-10.607 Q 45,-6.213 45,0 L 45,30" fill="#CCCECE" stroke="#CCCECE" stroke-width="3" stroke-linejoin="round" stroke-linecap="butt" stroke-opacity="0.4"/><path d=" M -15,0 Q -15,6.213 -19.393,10.607 Q -23.787,15 -30,15 L -60,15 Q -66.213,15 -70.607,10.607 Q -75,6.213 -75,0 L -75,-30 Q -75,-36.213 -70.607,-40.607 Q -66.213,-45 -60,-45 L -30,-45 Q -23.787,-45 -19.393,-40.607 Q -15,-36.213 -15,-30 L -15,0" fill="#CCCECE" stroke="#CCCECE" stroke-width="3" stroke-linejoin="round" stroke-linecap="butt" stroke-opacity="0.4"/><path d=" M 105,0 Q 105,6.213 100.607,10.607 Q 96.213,15 90,15 L 60,15 Q 53.787,15 49.393,10.607 Q 45,6.213 45,0 L 45,-30 Q 45,-36.213 49.393,-40.607 Q 53.787,-45 60,-45 L 90,-45 Q 96.213,-45 100.607,-40.607 Q 105,-36.213 105,-30 L 105,0" fill="#CCCECE" stroke="#CCCECE" stroke-width="3" stroke-linejoin="round" stroke-linecap="butt" stroke-opacity="0.4"/><path d=" M 45,-60 Q 45,-53.787 40.607,-49.393 Q 36.213,-45 30,-45 L 0,-45 Q -6.213,-45 -10.607,-49.393 Q -15,-53.787 -15,-60 L -15,-90 Q -15,-96.213 -10.607,-100.607 Q -6.213,-105 0,-105 L 30,-105 Q 36.213,-105 40.607,-100.607 Q 45,-96.213 45,-90 L 45,-60" fill="#CCCECE" stroke="#CCCECE" stroke-width="3" stroke-linejoin="round" stroke-linecap="butt" stroke-opacity="0.4"/><path d=" M -45,-120 Q -45,-113.787 -49.393,-109.393 Q -53.787,-105 -60,-105 L -90,-105 Q -96.213,-105 -100.607,-109.393 Q -105,-113.787 -105,-120 L -105,-150 Q -105,-156.213 -100.607,-160.607 Q -96.213,-165 -90,-165 L -60,-165 Q -53.787,-165 -49.393,-160.607 Q -45,-156.213 -45,-150 L -45,-120" fill="#CCCECE" stroke="#CCCECE" stroke-width="3" stroke-linejoin="round" stroke-linecap="butt" stroke-opacity="0.4"/><path d=" M -195,-180 Q -195,-173.787 -199.393,-169.393 Q -203.787,-165 -210,-165 L -240,-165 Q -246.213,-165 -250.607,-169.393 Q -255,-173.787 -255,-180 L -255,-210 Q -255,-216.213 -250.607,-220.607 Q -246.213,-225 -240,-225 L -210,-225 Q -203.787,-225 -199.393,-220.607 Q -195,-216.213 -195,-210 L -195,-180" fill="#CCCECE" stroke="#CCCECE" stroke-width="3" stroke-linejoin="round" stroke-linecap="butt" stroke-opacity="0.4"/><path d=" M -105,-60 Q -105,-53.787 -109.393,-49.393 Q -113.787,-45 -120,-45 L -150,-45 Q -156.213,-45 -160.607,-49.393 Q -165,-53.787 -165,-60 L -165,-90 Q -165,-96.213 -160.607,-100.607 Q -156.213,-105 -150,-105 L -120,-105 Q -113.787,-105 -109.393,-100.607 Q -105,-96.213 -105,-90 L -105,-60" fill="#CCCECE" stroke="#CCCECE" stroke-width="3" stroke-linejoin="round" stroke-linecap="butt" stroke-opacity="0.4"/><path d=" M -240.312,-198.47 L -242.035,-217.751 M -236.276,-201.964 L -237.652,-217.358 M -231.706,-199.491 L -233.435,-218.837 M -244.707,-213.621 L -244.14,-198.002 M -249.104,-215.376 L -248.422,-196.545 M -253.488,-216.754 L -252.773,-197.031 M -241.361,-268.26 L -251.33,-255.11 M -246.194,-269.055 L -255.63,-256.606 M -249.307,-272.117 L -258.268,-260.297 M -263.068,-252.307 L -279.216,-246.907 M -264.681,-256.335 L -280.663,-250.99 M -264.272,-261.039 L -279.87,-255.823 M -266.81,-231.706 L -275.147,-248.268 M -263.018,-233.807 L -269.861,-247.4 M -258.306,-234.079 L -266.847,-251.044 M -270.197,-266.855 L -276.773,-278.276 M -266.058,-268.346 L -274.023,-282.18 M -257.221,-261.678 L -269.737,-283.417 M -278.221,-256.374 L -287.064,-267.261 M -273.833,-257.842 L -282.03,-267.932 M -269.445,-259.309 L -279.526,-271.721 M -255.187,-264.361 L -263.532,-279.48 M -252.324,-268.137 L -259.187,-280.571 M -249.461,-271.914 L -256.135,-284.005 M -252.979,-202.705 L -268.526,-203.165 M -253.136,-207.042 L -267.034,-207.454 M -253.294,-211.38 L -266.934,-211.784 M -277.667,-210.231 L -273.792,-227.897 M -272.972,-211.421 L -269.451,-227.473 M -269.658,-206.312 L -265.289,-226.233 M -273.267,-272.186 L -287.356,-285.805 M -269.818,-274.876 L -286.26,-290.769 M -266.368,-277.566 L -281.485,-292.178 M -262.656,-202.991 L -256.25,-186.955 M -267.376,-203.131 L -260.525,-185.982 M -270.756,-199.917 L -264.178,-183.45 M -237.715,-196.786 L -238.85,-181.574 M -241.883,-199.131 L -243.322,-179.842 M -246.324,-197.831 L -247.667,-179.823 M -281.662,-234.97 L -284.551,-250.772 M -277.271,-235.038 L -280.215,-251.14 M -273.149,-236.576 L -275.279,-248.224 M -284.726,-226.013 L -277.924,-238.609 M -280.572,-224.59 L -273.39,-237.891 M -276.224,-223.526 L -269.221,-236.495 M -233.409,-265.539 L -242.811,-266.348 M -233.988,-269.936 L -249.922,-271.306 M -230.493,-273.983 L -246.426,-275.353 M -245.188,-270.899 L -251.502,-288.007 M -242.077,-274.979 L -246.976,-288.254 M -237.309,-274.569 L -243.439,-291.179 M -211.578,-202.782 L -229.048,-213.343 M -212.13,-208.177 L -225.493,-216.255 M -207.483,-210.428 L -223.713,-220.24 M -233.616,-265.557 L -231.818,-274.097 M -230.148,-261.005 L -227.106,-275.456 M -225.697,-261.124 L -222.59,-275.886 M -281.328,-213.715 L -289.751,-228.198 M -276.742,-214.446 L -284.121,-227.133 M -275.37,-220.702 L -279.157,-227.212 M -220.381,-194.666 L -215.614,-176.87 M -224.887,-194.75 L -220.236,-177.387 M -229.073,-193.637 L -224.444,-176.355 M -224.721,-194.129 L -237.886,-194.488 M -226.668,-198.515 L -240.35,-198.888 M -232.019,-202.994 L -236.379,-203.112 M -205.579,-196.1 L -218.702,-188.398 M -208.843,-199.206 L -219.864,-192.737 M -211.208,-202.841 L -225.991,-194.164 M -200.552,-213.046 L -211.563,-192.588 M -204.549,-214.759 L -212.012,-200.892 M -212.794,-208.578 L -214.849,-204.759 M -206.769,-176.733 L -217.463,-183.773 M -202.74,-179.266 L -217.596,-189.046 M -201.718,-183.778 L -213.432,-191.491 M -232.588,-274.163 L -239.869,-281.506 M -227.223,-274.904 L -235.949,-283.704 M -221.415,-275.198 L -234.152,-288.043 M -230.208,-284.066 L -215.391,-289.601 M -226.863,-280.692 L -212.789,-285.95 M -223.517,-277.318 L -214.198,-280.8 M -204.058,-272.763 L -220.451,-267.715 M -207.123,-276.351 L -220.704,-272.169 M -209.974,-280.005 L -227.27,-274.679 M -268.849,-281.876 L -259.764,-290.748 M -266.618,-278 L -254.711,-289.628 M -261.911,-276.543 L -258.697,-279.682 M -267.075,-190.703 L -280.44,-194.32 M -269.085,-195.734 L -279.957,-198.676 M -265.866,-199.35 L -282.219,-203.776 M -247.295,-184.805 L -265.131,-185.836 M -246.973,-189.125 L -257.357,-189.725 M -246.651,-193.445 L -259.131,-194.166 M -266.516,-184.285 L -256.894,-170.58 M -270.31,-182.151 L -261.266,-169.27 M -272.523,-177.766 L -263.973,-165.587 M -281.844,-180.663 L -279.785,-194.143 M -277.938,-177.553 L -275.577,-193.004 M -273.243,-179.605 L -271.37,-191.865 M -275.308,-203.095 L -292.21,-205.6 M -275.975,-207.572 L -290.262,-209.689 M -277.248,-212.139 L -289.788,-213.998 M -271.901,-216.301 L -269.422,-207.386 M -276.363,-216.177 L -272.157,-201.052 M -278.572,-207.957 L -277.302,-203.39 M -199.508,-274.814 L -211.037,-279.678 M -195.184,-277.691 L -212.745,-285.099 M -194.646,-282.165 L -209.625,-288.484 M -238.832,-181.818 L -232.082,-168.536 M -243.241,-180.934 L -236.151,-166.984 M -247.65,-180.051 L -241.369,-167.691 M -218.107,-171.872 L -234.045,-172.4 M -224.46,-176.416 L -236.285,-176.808 M -225.631,-180.788 L -238.525,-181.215 M -243.48,-171.845 L -258.641,-176.048 M -246.139,-177.077 L -265.156,-182.348 M -247.508,-181.951 L -260.573,-185.572 M -206.641,-198.02 L -197.801,-210.232 M -202.375,-196.527 L -192.938,-209.563 M -198.905,-193.934 L -191.367,-204.347 M -177.834,-203.693 L -193.822,-200.956 M -181.236,-207.505 L -196.294,-204.927 M -182.018,-211.765 L -195.407,-209.473 M -188.303,-221.867 L -176.371,-231.751 M -186.582,-217.669 L -172.429,-229.392 M -183.745,-214.394 L -169.862,-225.894 M -211.501,-261.388 L -207.064,-271.837 M -208.302,-257.84 L -200.853,-275.381 M -203.983,-256.928 L -196.785,-273.88 M -176.571,-231.585 L -187.483,-236.64 M -170.064,-233.344 L -183.172,-239.416 M -169.271,-237.75 L -182.774,-244.006 M -208.365,-188.155 L -209.306,-193.912 M -203.447,-184.917 L -205.783,-199.205 M -199.034,-184.77 L -201.218,-198.125 M -194.529,-182.685 L -194.552,-199.947 M -190.196,-180.767 L -190.223,-201.572 M -185.866,-182.355 L -185.886,-197.072 M -195.17,-177.501 L -209.941,-168.42 M -194.53,-182.979 L -213.236,-171.479 M -205.685,-181.205 L -209.758,-178.701 M -224.069,-172.069 L -216.028,-178.415 M -220.95,-169.013 L -209.167,-178.312 M -220.634,-163.745 L -202.369,-178.16 M -280.742,-259.478 L -292.043,-274.236 M -277.341,-262.161 L -288.629,-276.902 M -273.94,-264.844 L -285.725,-280.233 M -159.475,-203.43 L -173.786,-209.401 M -156.17,-206.744 L -173.026,-213.777 M -155.818,-211.291 L -176.882,-220.079 M -169.738,-206.563 L -182.259,-207.33 M -165.515,-210.643 L -182.495,-211.684 M -164.521,-214.922 L -181.828,-215.982 M -170.438,-217.39 L -171.079,-224.886 M -165.931,-215.51 L -166.919,-227.07 M -161.423,-213.629 L -162.682,-228.362 M -158.309,-248.091 L -171.096,-238.595 M -164.02,-249.245 L -174.093,-241.765 M -164.599,-254.21 L -180.044,-242.741 M -191.26,-249.067 L -185.463,-262.647 M -187.393,-247.092 L -180.845,-262.434 M -183.674,-244.772 L -176.691,-261.135 M -194.869,-282.568 L -179.396,-290.119 M -194.273,-278.04 L -177.657,-286.148 M -189.663,-275.47 L -176.29,-281.996 M -186.058,-270.37 L -196.327,-259.335 M -190.192,-272.286 L -203.564,-257.916 M -187.828,-281.185 L -198.598,-269.611 M -185.35,-171.333 L -198.113,-180.776 M -183.656,-175.467 L -194.53,-183.513 M -185.867,-182.49 L -190.202,-185.698 M -170.768,-225.143 L -170.889,-233.726 M -166.374,-220.697 L -166.672,-241.881 M -162.045,-220.913 L -162.308,-239.597 M -167.775,-272.194 L -167.76,-258.058 M -172.108,-274.226 L -172.088,-255.691 M -176.438,-273.443 L -176.421,-256.683 M -176.77,-187.812 L -170.772,-171.397 M -180.78,-186.166 L -174.527,-169.052 M -185.873,-187.485 L -179.153,-169.093 M -180.764,-183.217 L -185.884,-195.522 M -177.123,-185.741 L -184.143,-202.613 M -173.411,-188.095 L -179.764,-203.363 M -276.901,-153.438 L -262.281,-165.406 M -272.138,-151.739 L -260.135,-161.565 M -270.027,-147.87 L -256.116,-159.258 M -178.586,-200.532 L -172.582,-206.737 M -176.774,-196.176 L -166.798,-206.486 M -174.961,-191.82 L -164.76,-202.364 M -166.655,-176.411 L -174.504,-192.293 M -163.545,-179.894 L -171.306,-195.598 M -159.298,-181.078 L -168.109,-198.903 M -282.816,-241.283 L -291.521,-260.193 M -278.654,-242.599 L -287.649,-262.139 M -278.137,-251.835 L -281.935,-260.084 M -157.102,-169.51 L -172.136,-175.13 M -152.824,-172.535 L -167.439,-177.999 M -152.157,-176.91 L -164.316,-181.455 M -146.041,-182.437 L -162.776,-188.113 M -144.088,-186.349 L -165.492,-193.608 M -145.372,-191.357 L -159.237,-196.06 M -270.628,-152.975 L -269.662,-148.168 M -275.388,-154.676 L -272.697,-141.285 M -280.091,-156.092 L -276.947,-140.449 M -264.413,-125.45 L -279.855,-137.684 M -261.016,-128.284 L -277.056,-140.993 M -258.197,-131.577 L -273.122,-143.402 M -268.555,-160.27 L -291.989,-163.394 M -273.121,-165.248 L -288.759,-167.333 M -273.048,-169.608 L -287.586,-171.546 M -284.631,-171.152 L -278.935,-186.422 M -280.227,-170.565 L -274.742,-185.269 M -275.824,-169.978 L -271.171,-182.448 M -138.446,-194.483 L -135.969,-179.775 M -142.457,-192.218 L -140.039,-177.862 M -145.968,-186.986 L -144.15,-176.194 M -186.406,-267.595 L -179.275,-280.539 M -182.252,-266.16 L -172.868,-283.194 M -176.432,-267.747 L -168.854,-281.504 M -185.613,-262.296 L -188.444,-267.807 M -178.26,-257.459 L -184.884,-270.357 M -176.428,-263.372 L -179.979,-270.286 M -198.958,-268.762 L -199.512,-279.517 M -194.871,-273.616 L -195.326,-282.452 M -190.451,-272.008 L -190.762,-278.032 M -278.174,-146.557 L -291.667,-151.069 M -279.158,-151.453 L -292.105,-155.783 M -275.316,-154.735 L -291.776,-160.24 M -179.359,-280.498 L -173.421,-291.607 M -177.557,-274.682 L -169.828,-289.14 M -173.75,-272.616 L -164.776,-289.403 M -157.81,-273.047 L -167.773,-271.065 M -159.947,-277.038 L -172.713,-274.499 M -158.698,-281.703 L -169.98,-279.458 M -282.803,-109.818 L -277.421,-127.397 M -277.789,-111.4 L -271.716,-131.236 M -273.841,-109.5 L -268.071,-128.348 M -278.103,-125.171 L -293.139,-130.06 M -272.715,-127.974 L -289.259,-133.352 M -273.787,-132.877 L -291.187,-138.534 M -288.121,-137.537 L -289.907,-150.48 M -283.543,-136.048 L -285.07,-147.111 M -279.34,-137.276 L -280.739,-147.415 M -120.203,-176.372 L -136.429,-182.506 M -119.028,-180.558 L -137.262,-187.452 M -118.053,-184.82 L -133.457,-190.644 M -281.229,-184.689 L -295.662,-197.532 M -280.449,-189.793 L -290.598,-198.824 M -278.402,-193.768 L -288.001,-202.311 M -116.643,-188.711 L -132.265,-190.193 M -119.855,-193.367 L -134.832,-194.787 M -117.59,-197.502 L -135.261,-199.179 M -117.354,-188.779 L -123.661,-191.531 M -107.292,-189.113 L -128.997,-198.584 M -106.858,-193.65 L -120.189,-199.467 M -214.25,-87.857 L -230.159,-96.005 M -213.908,-92.548 L -226.51,-99.003 M -212.151,-96.514 L -227.249,-104.247 M -273.967,-105.45 L -266.352,-119.209 M -269.003,-105.475 L -261.785,-118.516 M -265.748,-102.412 L -257.898,-116.596 M -260.939,-103.173 L -275.203,-94.552 M -263.324,-106.792 L -276.762,-98.67 M -266.554,-109.901 L -279.521,-102.063 M -278.502,-102.679 L -287.105,-109.121 M -274.503,-105.096 L -282.431,-111.032 M -273.714,-109.916 L -277.399,-112.675 M -198.252,-80.447 L -194.369,-97.556 M -193.267,-82.843 L -189.553,-99.207 M -189.947,-77.899 L -186.139,-94.682 M -208.718,-80.856 L -219.483,-95.403 M -206.234,-84.782 L -216.605,-98.796 M -201.399,-85.529 L -213.303,-101.616 M -120.96,-181.288 L -112.226,-191.267 M -122.07,-173.443 L -108.061,-189.449 M -119.425,-169.888 L -107.373,-183.659 M -157.37,-93.375 L -141.673,-97.128 M -158.707,-88.602 L -141.487,-92.719 M -156.126,-84.766 L -141.772,-88.198 M -164.09,-73.316 L -176.458,-82.975 M -162.852,-77.845 L -173.791,-86.388 M -160.81,-81.745 L -173.858,-91.935 M -170.717,-89.482 L -181.472,-80.445 M -169.818,-95.896 L -181.267,-86.274 M -172.977,-98.898 L -183.916,-89.706 M -174.459,-246.888 L -178.681,-256.471 M -170.893,-249.536 L -176.426,-262.096 M -167.327,-252.184 L -172.096,-263.01 M -102.568,-140.317 L -89.609,-154.206 M -99.883,-136.846 L -86.918,-150.742 M -95.634,-135.051 L -84.274,-147.227 M -92.534,-151.072 L -97.964,-155.661 M -82.437,-148.209 L -96.867,-160.405 M -81.024,-152.686 L -94.89,-164.405 M -241.893,-95.061 L -227.882,-100.071 M -243.034,-90.053 L -228.609,-95.211 M -241.316,-86.068 L -223.32,-92.502 M -249.189,-92.132 L -265.471,-87.694 M -251.823,-95.903 L -266.992,-91.768 M -252.263,-100.273 L -269.068,-95.692 M -198.137,-78.756 L -212.723,-77.98 M -197.645,-83.12 L -209.91,-82.467 M -202.63,-87.192 L -207.814,-86.916 M -138.888,-80.061 L -142.102,-88.119 M -134.601,-81.006 L -141.393,-98.033 M -130.756,-83.055 L -136.247,-96.822 M -180.076,-81.618 L -178.31,-72.962 M -185.41,-86.094 L -182.323,-70.964 M -189.005,-82.051 L -186.74,-70.946 M -165.952,-74.77 L -153.821,-85.317 M -163.153,-71.464 L -150.886,-82.13 M -159.831,-68.613 L -147.051,-79.724 M -264.548,-78.828 L -277.455,-79.823 M -262.612,-83.023 L -279.007,-84.287 M -259.928,-87.16 L -277.081,-88.482 M -274.097,-88.252 L -290.196,-96.564 M -272.692,-92.401 L -288.674,-100.652 M -276.131,-99.051 L -287.109,-104.719 M -85.505,-167.873 L -98.046,-177.539 M -82.247,-170.83 L -96.187,-181.574 M -79.594,-174.254 L -95.044,-186.162 M -72.366,-162.26 L -88.139,-167.154 M -70.467,-166.205 L -92.019,-172.893 M -72.566,-171.392 L -89.991,-176.799 M -100.939,-185.532 L -102.215,-171.299 M -105.045,-188.238 L -106.707,-169.699 M -110.081,-180.565 L -111.179,-168.315 M -145.478,-62.574 L -153.276,-74.313 M -143.151,-66.898 L -149.979,-77.178 M -139.529,-69.274 L -147.206,-80.831 M -137.893,-65.824 L -150.856,-53.65 M -146.324,-63.847 L -154.296,-56.361 M -148.755,-67.507 L -157.214,-59.562 M -148.683,-55.691 L -167.551,-54.535 M -154.51,-59.673 L -170.745,-58.678 M -152.334,-64.146 L -167.88,-63.193 M -251.856,-81.043 L -247.421,-97.666 M -246.772,-83.298 L -243.345,-96.142 M -243.627,-78.283 L -240.218,-91.06 M -90.26,-182.475 L -87.258,-202.793 M -86.329,-179.445 L -82.96,-202.251 M -81.042,-185.596 L -78.467,-203.032 M -97.12,-176.825 L -100.703,-194.293 M -94.533,-185.768 L -96.273,-194.248 M -89.915,-184.809 L -92.128,-195.597 M -68.838,-177.174 L -86.144,-180.697 M -68.976,-181.622 L -85.51,-184.988 M -66.064,-185.45 L -80.626,-188.414 M -99.974,-190.736 L -105.38,-184.499 M -101.11,-196.037 L -111.94,-183.545 M -108.348,-194.3 L -111.32,-190.871 M -219.532,-74.259 L -231.738,-81.919 M -216.991,-77.779 L -234.236,-88.599 M -213.757,-80.862 L -229.045,-90.455 M -152.489,-34.937 L -168.795,-41.863 M -152.991,-39.855 L -167.475,-46.008 M -150.567,-43.531 L -167.34,-50.657 M -81.998,-153.642 L -68.704,-161.271 M -82.096,-148.592 L -64.83,-158.501 M -78.594,-145.608 L -64.671,-153.598 M -55.554,-183.733 L -68.95,-172.517 M -58.004,-187.331 L -69.881,-177.386 M -66.815,-185.602 L -71.062,-182.047 M -64.604,-175.834 L -65.645,-158.033 M -68.961,-175.531 L -69.832,-160.624 M -73.784,-167.235 L -74.045,-162.781 M -187.363,-74.002 L -203.392,-74.23 M -189.841,-78.369 L -202.128,-78.544 M -188.861,-82.687 L -197.715,-82.813 M -132.728,-49.597 L -143.267,-60.777 M -129.409,-52.391 L -140.109,-63.742 M -126.341,-55.451 L -139.907,-69.842 M -153.704,-44.864 L -160.262,-54.981 M -145.494,-40.161 L -155.298,-55.285 M -143.027,-44.318 L -149.749,-54.689 M -167.69,-58.865 L -170.453,-78.285 M -163.965,-63.433 L -165.531,-74.441 M -159.628,-63.699 L -160.999,-73.337 M -74.602,-152.893 L -84.373,-137.267 M -77.699,-156.11 L -82.569,-148.321 M -85.911,-151.145 L -90.438,-143.906 M -282.958,-69.977 L -293.489,-86.879 M -280.768,-74.653 L -288.83,-87.592 M -275.554,-74.475 L -285.598,-90.596 M -230.93,-66.134 L -243.017,-80.571 M -227.59,-68.891 L -241.652,-85.688 M -225.244,-72.836 L -237.472,-87.442 M -214.883,-68.057 L -219.861,-79.579 M -209.513,-66.548 L -216.419,-82.533 M -205.644,-68.514 L -209.801,-78.136 M -245.508,-88.036 L -242.707,-70.868 M -249.932,-88.255 L -247.077,-70.751 M -253.702,-84.461 L -250.853,-67 M -64.009,-188.951 L -80.17,-191.497 M -62.508,-193.099 L -79.537,-195.782 M -65.573,-197.967 L -78.905,-200.067 M -76.585,-110.882 L -91.875,-121.714 M -74.829,-114.946 L -89.804,-125.555 M -72.781,-118.804 L -86.367,-128.428 M -111.18,-92.404 L -99.935,-105.033 M -108.668,-88.713 L -96.335,-102.563 M -104.839,-86.499 L -94.515,-98.093 M -86.474,-92.37 L -96.908,-101.919 M -81.477,-93.669 L -93.018,-104.23 M -80.884,-98.998 L -90.347,-107.657 M -79.192,-102.254 L -90.88,-108.663 M -77.444,-106.236 L -92.047,-114.242 M -73.175,-108.835 L -89.515,-117.794 M -120.238,-83.367 L -108.482,-94.657 M -116.868,-80.598 L -102.957,-93.958 M -111.984,-79.283 L -100.624,-90.194 M -121.081,-75.875 L -131,-83.666 M -118.786,-79.58 L -134.199,-91.688 M -118.599,-84.941 L -129.609,-93.59 M -111.029,-83.085 L -118.944,-69.555 M -114.567,-85.615 L -121.885,-73.104 M -121.752,-81.91 L -123.96,-78.136 M -61.866,-133.894 L -71.265,-149.814 M -58.948,-137.47 L -67.508,-151.97 M -54.747,-138.875 L -65.954,-157.856 M -64.085,-154.691 L -61.842,-161.794 M -61.125,-149.678 L -56.667,-163.8 M -58.166,-144.665 L -52.56,-162.424 M -97.749,-78.783 L -95.467,-97.025 M -93.766,-75.731 L -91.149,-96.649 M -89.254,-76.902 L -87.232,-93.065 M -95.871,-123.016 L -89.56,-136.86 M -91.746,-121.623 L -84.38,-137.781 M -84.49,-127.099 L -80.957,-134.849 M -53.973,-197.479 L -63.629,-184.312 M -62.551,-193.106 L -65.434,-189.176 M -62.388,-200.652 L -67.366,-193.865 M -59.666,-161.198 L -63.602,-176.994 M -54.207,-157.206 L -58.665,-175.094 M -51.444,-164.031 L -56.216,-183.179 M -50.136,-197.109 L -49.742,-179.155 M -54.461,-196.814 L -53.964,-174.143 M -58.575,-186.853 L -58.454,-181.306 M -127.559,-62.099 L -122.343,-73.417 M -124.274,-58.879 L -117.852,-72.815 M -120.016,-57.771 L -113.289,-72.366 M -107.359,-72.553 L -105.409,-54.719 M -111.457,-70.185 L -109.923,-56.151 M -115.523,-67.52 L -114.084,-54.362 M -99.888,-76.372 L -107.046,-69.691 M -103.045,-79.35 L -115.374,-67.844 M -104.829,-83.609 L -117.809,-71.496 M -51.078,-119.555 L -64.72,-128.304 M -50.334,-124.223 L -63.366,-132.581 M -46.641,-127 L -64.594,-138.514 M -50.41,-112.862 L -64.203,-115.847 M -47.694,-116.706 L -65.35,-120.527 M -47.152,-121.02 L -56.526,-123.049 M -48.862,-165.889 L -54.033,-177.259 M -46.353,-170.834 L -52.135,-183.548 M -41.149,-169.853 L -49.963,-189.236 M -153.619,-36.641 L -139.443,-40.036 M -153.974,-32.102 L -137.476,-36.053 M -153.723,-27.708 L -137.819,-31.517 M -117.619,-53.253 L -134.896,-51.898 M -114.465,-57.845 L -127.625,-56.813 M -123.059,-61.515 L -131.438,-60.858 M -156.117,-20.944 L -167.331,-41.241 M -153.1,-24.44 L -160.865,-38.494 M -152.57,-32.438 L -154.399,-35.748 M -142.329,-25.735 L -155.149,-14.183 M -144.035,-30.028 L -158.321,-17.154 M -154.299,-26.61 L -157.602,-23.633 M -98.765,-46.817 L -109.955,-56.444 M -97.278,-51.252 L -105.835,-58.613 M -91.614,-52.092 L -106.524,-64.92 M -63.742,-96.498 L -78.888,-103.522 M -62.147,-100.532 L -80.527,-109.057 M -63.328,-105.855 L -81.166,-114.128 M -69.314,-99.082 L -80.821,-85.388 M -73.385,-100.97 L -88.492,-82.991 M -77.456,-102.858 L -83.569,-95.583 M -64.292,-120.298 L -71.927,-109.843 M -64.099,-127.906 L -75.934,-111.701 M -74.975,-120.358 L -77.529,-116.86 M -71.329,-109.565 L -61.58,-115.279 M -66.547,-107.347 L -55.324,-113.926 M -66.313,-102.464 L -53.033,-110.248 M -93.363,-53.596 L -85.417,-68.709 M -90.665,-49.42 L -83.298,-63.433 M -86.334,-48.35 L -78.508,-63.237 M -162.109,-3.046 L -149.525,-16.118 M -159.017,-0.013 L -146.343,-13.178 M -154.968,2.026 L -142.689,-10.729 M -160.173,-5.057 L -172.444,-10.263 M -156.958,-8.397 L -169.458,-13.701 M -153.742,-11.738 L -167.481,-17.568 M -156.41,-18.877 L -173.314,-17.202 M -157.329,-23.138 L -173.367,-21.549 M -159.609,-27.265 L -174.281,-25.811 M -51.6,-77.198 L -67.012,-91.239 M -48.807,-80.512 L -63.272,-93.69 M -48.113,-85.739 L -60.723,-97.228 M -39.345,-79.649 L -52.49,-92.967 M -36.3,-82.73 L -49.456,-96.058 M -33.407,-85.964 L -46.661,-99.392 M -92.628,-61.473 L -102.322,-61.305 M -86.892,-65.905 L -106.594,-65.562 M -89.918,-70.184 L -106.833,-69.89 M -252.399,-76.477 L -265.852,-80.184 M -253.167,-81.181 L -264.896,-84.413 M -250.795,-85.02 L -262.971,-88.375 M -65.234,-46.533 L -83.211,-54.291 M -63.188,-50.368 L -81.19,-58.136 M -61.757,-54.467 L -79.168,-61.981 M -58.021,-56.223 L -59.766,-43.095 M -62.577,-54.821 L -64.418,-40.966 M -67.302,-52.143 L -67.895,-47.682 M -59.137,-84.065 L -72.933,-94.776 M -56.346,-87.381 L -70.144,-98.094 M -53.555,-90.698 L -67.168,-101.267 M -51.903,-16.046 L -66.853,-27.53 M -51.294,-21.04 L -64.382,-31.093 M -47.746,-23.776 L -62.346,-34.991 M -55.928,-70.569 L -63.747,-57.422 M -60.487,-71.376 L -68.749,-57.485 M -62.942,-75.722 L -72.759,-59.215 M -69.937,-63.961 L -82.173,-73.969 M -67.698,-67.725 L -77.13,-75.439 M -65.459,-71.489 L -74.922,-79.229 M -66.625,-72.443 L -62.46,-86.645 M -62.951,-69.578 L -58.795,-83.753 M -60.305,-63.208 L -55.233,-80.507 M -64.811,-78.627 L -83.421,-80.087 M -63.566,-82.874 L -87.043,-84.716 M -63.159,-87.187 L -78.311,-88.375 M -39.469,-66.095 L -59.092,-65.249 M -39.994,-70.407 L -56.445,-69.698 M -41.68,-74.67 L -57.14,-74.004 M -54.934,-2.043 L -67.477,-13.146 M -51.22,-4.541 L -65.651,-17.313 M -48.363,-7.796 L -61.532,-19.452 M -68.859,10.39 L -68.881,-6.485 M -64.529,9.243 L -64.555,-10.56 M -60.198,9.363 L -60.219,-6.721 M -79.635,-71.893 L -91.594,-56.96 M -78.905,-79.733 L -87.887,-68.518 M -80.852,-84.23 L -92.132,-70.146 M -42.779,-0.223 L -60.208,1.318 M -43.795,-4.481 L -56.427,-3.365 M -49.01,-8.368 L -54.951,-7.843 M -73.219,20.044 L -64.536,4.204 M -69.142,21.618 L -60.203,5.31 M -65.28,23.583 L -52.712,0.655 M -53.752,23.727 L -59.09,12.289 M -48.056,25.692 L -56.508,7.579 M -45.513,20.9 L -53.926,2.869 M -25.491,-168.121 L -41.593,-170.829 M -27.855,-172.911 L -43.755,-175.585 M -25.296,-176.872 L -45.918,-180.341 M -140.957,3.335 L -151.319,15.687 M -145.219,1.675 L -153.826,11.936 M -146.768,-3.217 L -159.047,11.419 M -37.689,-178.957 L -34.809,-191.105 M -33.408,-178.237 L -30.462,-190.667 M -29.128,-177.517 L -25.784,-191.62 M -58.752,41.881 L -64.003,24.434 M -54.329,41.549 L -60.088,22.413 M -50.131,40.467 L -57.744,15.174 M -40.06,26.103 L -44.658,8.053 M -36.392,22.955 L -40.39,7.263 M -32.384,21.143 L -36.515,4.926 M -43.36,13.147 L -49.778,11.76 M -44.555,8.458 L -52.077,6.831 M -36.289,5.814 L -57.989,1.121 M -48.89,23.905 L -41.468,20.574 M -53.116,30.549 L -40.383,24.835 M -51.858,34.731 L -38.311,28.652 M -35.219,-29.38 L -49.975,-25.488 M -36.674,-33.476 L -54.315,-28.822 M -37.749,-37.672 L -58.656,-32.157 M -53.517,-33.512 L -63.639,-46.828 M -48.985,-34.708 L -56.812,-45.004 M -44.453,-35.903 L -58.301,-54.119 M -114.125,29.954 L -132.827,28.939 M -116.095,25.509 L -130.509,24.727 M -117.128,21.116 L -131.487,20.336 M -162.746,-83.257 L -165.584,-96.174 M -157.971,-81.709 L -161.695,-98.657 M -154.304,-85.201 L -155.234,-89.432 M -43.634,-83.994 L -46.03,-74.483 M -48.946,-80.639 L -50.546,-74.288 M -52.578,-83.948 L -53.779,-79.183 M -48.182,3.242 L -28.799,-15.407 M -43.082,4.345 L -25.972,-12.117 M -37.981,5.448 L -23.434,-8.548 M -44.486,-0.072 L -42.462,-2.262 M -42.739,4.419 L -39.367,0.771 M -36.273,3.805 L -29.378,-3.655 M -144.054,23.658 L -155.538,34.582 M -147.011,20.493 L -160.812,33.621 M -148.961,16.37 L -163.347,30.055 M -167.371,21.759 L -159.47,6.633 M -163.275,23.273 L -153.843,5.216 M -160.533,27.378 L -150.222,7.639 M -140.56,47.424 L -154.28,40.197 M -137.984,43.886 L -151.475,36.779 M -137.911,39.029 L -152.264,31.468 M -130.118,42.643 L -142.429,34.087 M -126.871,39.624 L -140.02,30.487 M -125.763,35.12 L -138.7,26.13 M -162.448,29.2 L -172.935,29.653 M -159.145,24.721 L -172.226,25.287 M -161.828,20.502 L -166.827,20.719 M -37.012,-181.813 L -49.999,-190.881 M -35.937,-186.345 L -50.117,-196.246 M -34.863,-190.878 L -46.363,-198.907 M -55.693,-50.689 L -53.381,-60.867 M -52.273,-46.191 L -49.795,-57.098 M -48.854,-41.692 L -45.56,-56.188 M -23.877,-31.41 L -39.839,-29.297 M -23.437,-35.837 L -42.152,-33.36 M -24.614,-40.05 L -45.503,-37.285 M -49.955,-56.394 L -37.011,-62.851 M -46.186,-53.434 L -35.295,-58.867 M -47.426,-47.975 L -30.767,-56.286 M -41.076,-37.871 L -46.336,-45.812 M -36.299,-38.503 L -42.651,-48.091 M -31.523,-39.136 L -39.875,-51.742 M -1.138,-171.044 L -17.143,-174.019 M 1.587,-174.943 L -17.733,-178.534 M 0.697,-179.514 L -16.593,-182.728 M -22.615,-168.813 L -27.555,-184.148 M -18.694,-170.765 L -24.181,-187.799 M -16.577,-178.319 L -19.679,-187.949 M -6.579,-183.229 L -19.169,-186.367 M -4.942,-187.285 L -24.053,-192.047 M -5.056,-191.777 L -20.988,-195.747 M -44.35,-24.632 L -31.211,-30.439 M -43.582,-20.236 L -28.123,-27.068 M -41.065,-16.613 L -24.317,-24.015 M -30.455,-39.277 L -35.075,-54.137 M -26.099,-39.854 L -31.148,-56.096 M -22.515,-42.917 L -27.249,-58.144 M -159.554,6.795 L -167.715,-0.531 M -154.266,5.721 L -165.865,-4.691 M -156.77,-2.347 L -159.995,-5.242 M -16.013,-65.739 L -16.073,-49.889 M -20.347,-64.987 L -20.407,-49.345 M -24.675,-65.937 L -24.735,-50.057 M -26.283,-55.036 L -35.908,-58.562 M -24.701,-59.07 L -38.044,-63.957 M -24.684,-63.676 L -34.997,-67.453 M -87.904,-124.209 L -88.274,-119.163 M -91.656,-132.263 L -93.226,-110.853 M -96.273,-128.524 L -97.644,-109.826 M -91.989,-70.325 L -104.276,-72.276 M -88.873,-74.215 L -100.261,-76.024 M -89.038,-78.627 L -93.318,-79.307 M 5.144,-189.442 L -5.719,-180.707 M 1.314,-191.92 L -8.804,-183.784 M -5.605,-191.914 L -9.843,-188.507 M -32.943,-66.701 L -53.718,-69.816 M -27.312,-70.237 L -42.844,-72.565 M -24.775,-74.236 L -45.316,-77.316 M -25.735,-82.365 L -38.758,-76.332 M -28.855,-85.693 L -40.148,-80.462 M -35.028,-87.607 L -39.204,-85.672 M -25.232,-86.108 L -36.872,-89.475 M -22.566,-89.846 L -43.101,-95.785 M -20.857,-93.86 L -36.426,-98.363 M -36.197,-185.249 L -27.957,-200.257 M -32.118,-183.679 L -23.343,-199.661 M -27.32,-183.418 L -22.759,-191.725 M -119.233,29.677 L -121.585,47.664 M -123.571,29.441 L -126.174,49.355 M -129.07,38.096 L -130.594,49.749 M 2.836,-179.254 L 18.606,-184.377 M 4.096,-175.109 L 19.449,-180.097 M 6.366,-171.292 L 23.524,-176.867 M 27.935,-185.316 L 47.374,-186.589 M 27.953,-180.976 L 45.706,-182.139 M 29.279,-176.723 L 48.155,-177.959 M 26.316,-172.825 L 20.716,-187.104 M 29.436,-176.733 L 24.032,-190.513 M 32.312,-181.262 L 30.653,-185.494 M -102.041,46.114 L -115.678,41.522 M -100.283,42.136 L -114.904,37.212 M -96.708,38.769 L -114.306,32.843 M -84.569,37.296 L -101.854,37.036 M -84.161,32.97 L -102.575,32.694 M -84.403,28.635 L -101.953,28.371 M -117.488,29.771 L -117.361,25.441 M -113.254,33.198 L -112.905,21.215 M -108.963,34.642 L -108.596,22.014 M -34.164,14.155 L -17.696,-4.241 M -32.877,19.211 L -14.392,-1.437 M -23.123,14.809 L -13.249,3.779 M 8.019,-82.932 L -7.833,-86.09 M 7.545,-87.443 L -10.293,-90.996 M 8.257,-91.717 L -9.558,-95.266 M -6.972,-94.751 L -8.036,-90.547 M -9.378,-102.893 L -13.946,-84.851 M -13.45,-104.456 L -17.485,-88.521 M -6.646,-191.078 L 14.319,-197.688 M -4.566,-187.192 L 16.521,-193.841 M -2.487,-183.306 L 17.464,-189.597 M -83.79,49.959 L -91.167,37.197 M -80.917,46.274 L -86.121,37.272 M -76.548,45.178 L -86.126,28.609 M -84.544,31.345 L -77.134,22.428 M -82.234,35.341 L -73.647,25.009 M -79.924,39.338 L -70.228,27.672 M -156.894,47.703 L -171.272,44.215 M -154.184,43.904 L -173.396,39.243 M -154.459,39.38 L -171.67,35.205 M 2.534,-58.447 L -10.26,-53.748 M 1.286,-62.603 L -12.23,-57.638 M 0.267,-66.842 L -16.032,-60.856 M 7.618,-166.832 L -5.7,-174.763 M 7.807,-171.761 L -7.897,-181.112 M 8.336,-176.487 L 3.388,-179.433 M -20.35,-64.183 L -36.046,-71.546 M -8.756,-63.528 L -25.183,-71.234 M -10.32,-69.046 L -24.588,-75.739 M 38.511,-52.498 L 20.509,-49.444 M 38.618,-56.909 L 22.157,-54.117 M 35.908,-60.843 L 18.954,-57.967 M 9.593,-92.475 L 20.999,-100.298 M 11.34,-88.421 L 26.102,-98.545 M 15.089,-85.74 L 27.782,-94.445 M 28.514,-74.91 L 20.668,-89.567 M 32.734,-76.204 L 24.262,-92.031 M 36.056,-79.176 L 29.197,-91.989 M -23.432,-80.905 L -25.933,-90.819 M -19.198,-81.831 L -22.341,-94.289 M -14.528,-81.023 L -16.951,-90.63 M -5.084,-74.689 L 5.667,-83.401 M -1.339,-72.149 L 10.605,-81.827 M -0.297,-67.419 L 15.15,-79.935 M 3.451,-54.381 L 1.742,-69.071 M 7.857,-53.99 L 5.727,-72.3 M 12.151,-54.563 L 10.164,-71.642 M 16.67,-80.19 L -0.511,-85.702 M 17.124,-84.593 L 1.875,-89.485 M 13.899,-90.176 L 2.046,-93.979 M 44.316,-79.622 L 35.281,-65.938 M 40.342,-81.463 L 32.394,-69.427 M 34.975,-81.195 L 32.261,-77.086 M 23.441,-58.728 L 15.4,-67.455 M 28.534,-59.592 L 18.621,-70.351 M 31.893,-62.339 L 21.112,-74.04 M -7.47,-69.236 L -15.334,-84.22 M -3.094,-70.219 L -11.052,-85.381 M -1.902,-77.268 L -6.381,-85.801 M -8.341,-70.896 L -27.324,-78.37 M -11.42,-76.763 L -23.596,-81.557 M -14.981,-82.82 L -19.94,-84.773 M -8.55,12.715 L -14.328,4.985 M -5.119,10.07 L -14.658,-2.689 M -0.818,8.589 L -12.27,-6.729 M 13.649,2.443 L 15.897,-14.038 M 18.383,-0.215 L 20.53,-15.957 M 22.437,2.112 L 24.364,-12.015 M 57.089,-97.348 L 49.453,-85.714 M 53.536,-99.829 L 45.703,-87.894 M 52.017,-105.408 L 41.179,-88.895 M 26.141,-68.582 L 37.969,-70.009 M 29.758,-64.656 L 40.718,-65.979 M 28.076,-60.09 L 42.531,-61.835 M 11.682,-58.591 L 19.852,-62.623 M 10.322,-53.09 L 20.857,-58.289 M 12.366,-49.268 L 22.206,-54.125 M -15.629,23.515 L -20.181,11.522 M -10.447,24.96 L -15.979,10.386 M -7.018,21.789 L -12.435,7.517 M -30.575,10.146 L -24.449,9.797 M -34.031,14.681 L -28.541,14.368 M -32.634,18.939 L -17.688,18.089 M 17.703,4.678 L 35.13,-0.834 M 22.464,7.715 L 37.663,2.908 M 22.514,12.242 L 40.096,6.682 M 16.853,12.633 L -0.569,7.469 M 26.511,10.978 L -0.244,3.047 M 19.055,4.25 L 2.026,-0.797 M 55.302,4.93 L 48.4,-11.612 M 58.927,2.37 L 53.447,-10.763 M 62.647,0.038 L 56.88,-13.783 M 49.946,-23.721 L 51.321,-42.776 M 54.35,-24.572 L 55.464,-40.012 M 58.783,-25.831 L 59.97,-42.275 M 52.825,-1.008 L 41.406,9.719 M 51.043,-5.277 L 38.884,6.145 M 46.586,-7.032 L 36.33,2.602 M 39.931,-80.841 L 55.105,-82.46 M 42.42,-76.751 L 59.056,-78.526 M 39.326,-72.065 L 59.732,-74.242 M 1.791,-68.652 L -2.967,-65.655 M 4.334,-75.373 L -3.281,-70.576 M -5.3,-74.423 L -8.976,-72.107 M 23.715,-179.457 L 17.134,-198.219 M 27.776,-180.965 L 20.331,-202.192 M 30.775,-185.502 L 24.621,-203.047 M 60.599,-79.949 L 54.773,-93.82 M 63.382,-84.508 L 56.958,-99.802 M 68.658,-83.131 L 61.769,-99.534 M 30.264,-89.995 L 41.642,-99.93 M 32.362,-86.077 L 43.078,-95.434 M 34.459,-82.158 L 51.979,-97.456 M -61.672,49.453 L -76.573,42.753 M -56.368,47.09 L -71.955,40.08 M -58.965,41.173 L -69.881,36.264 M -45.854,42.061 L -58.397,51.35 M -50.286,39.953 L -58.579,46.095 M -55.311,38.285 L -59.01,41.024 M 74.481,3.939 L 61.012,-3.882 M 78.596,1.319 L 58.254,-10.491 M 79.614,-3.098 L 66.308,-10.823 M 72.233,2.633 L 55.212,14.826 M 68.125,0.248 L 53.044,11.051 M 58.651,1.707 L 55.037,4.295 M 38.81,15.854 L 42.287,8.891 M 42.294,18.572 L 49.341,4.46 M 46.078,20.688 L 54.686,3.452 M 61.441,-167.758 L 45.581,-173.746 M 63.336,-171.672 L 46.901,-177.877 M 63.015,-176.423 L 48.316,-181.972 M 74.041,-75.148 L 55.71,-78.169 M 71.425,-79.969 L 59.785,-81.887 M 67.898,-84.94 L 62.851,-85.771 M 77.73,-88.604 L 81.684,-70.207 M 73.965,-85.509 L 77.22,-70.364 M 70.7,-80.088 L 71.678,-75.538 M 48.772,-47.377 L 36.247,-56.507 M 50.047,-51.807 L 37.177,-61.188 M 51.46,-56.137 L 38.351,-65.693 M 42.6,-62.595 L 49.523,-73.153 M 46.104,-60.041 L 55.092,-73.747 M 49.609,-57.487 L 57.589,-69.657 M 90.196,-152.351 L 75.149,-156.665 M 93.979,-155.772 L 77.042,-160.628 M 94.642,-160.088 L 77.058,-165.129 M 91.995,-175.74 L 84.863,-162.891 M 88.213,-177.852 L 80.59,-164.117 M 85.345,-181.61 L 75.606,-164.062 M 78.243,-168.813 L 65.193,-175.954 M 80.345,-172.6 L 66.778,-180.023 M 82.446,-176.387 L 70.421,-182.967 M 51.419,-192.36 L 64.108,-200.023 M 53.047,-188.284 L 66.419,-196.359 M 49.952,-181.355 L 70.661,-193.861 M 63.073,-40.738 L 71.737,-54.477 M 67.388,-39.46 L 75.571,-52.438 M 69.668,-34.956 L 79.204,-50.079 M 50.81,-50.353 L 59.105,-68.83 M 54.893,-48.873 L 61.418,-63.406 M 59.833,-49.301 L 65.761,-62.506 M 69.681,-27.06 L 59.489,-35.606 M 72.278,-30.535 L 59.873,-40.936 M 71.079,-37.193 L 67.729,-40.001 M 41.283,27.686 L 29.561,10.013 M 46.522,27.748 L 33.858,8.654 M 46.49,19.863 L 43.728,15.7 M 90.17,-128.127 L 85.767,-153.621 M 94.331,-129.486 L 89.573,-157.035 M 98.705,-129.608 L 95.778,-146.557 M 89.594,-152.523 L 87.346,-144.477 M 85.43,-153.717 L 81.414,-139.336 M 81.266,-154.911 L 76.89,-139.239 M 79.251,-34.701 L 74.248,-20.244 M 75.395,-36.802 L 69.774,-20.559 M 69.461,-32.898 L 67.944,-28.517 M 33.96,-185.71 L 33.447,-202.355 M 38.285,-185.994 L 37.869,-199.494 M 42.609,-186.277 L 42.15,-201.171 M 87.203,-108.992 L 93.723,-123.579 M 91.737,-108.521 L 97.846,-122.19 M 95.606,-106.563 L 102.488,-121.961 M 90.792,-100.19 L 75.81,-108.052 M 91.614,-104.649 L 77.191,-112.219 M 88.24,-111.312 L 78.226,-116.567 M 102.317,-121.579 L 84.061,-127.398 M 103.233,-125.833 L 89.828,-130.106 M 98.3,-131.951 L 93.649,-133.434 M -2.812,34.22 L -19.659,33.066 M -0.03,30.069 L -19.478,28.737 M -0.667,25.684 L -19.38,24.402 M 6.696,25.837 L -8.601,26.857 M 9.329,21.32 L -11.306,22.696 M 6.395,17.175 L -8.395,18.161 M 113.07,-148.632 L 96.707,-141.177 M 108.742,-151.42 L 95.945,-145.59 M 106.707,-155.252 L 93.98,-149.454 M 100.881,-164.775 L 97.565,-151.087 M 96.368,-164.544 L 92.648,-149.186 M 90.059,-156.896 L 89.789,-155.782 M 65.756,-62.494 L 76.36,-63.358 M 63.731,-57.984 L 77.495,-59.105 M 61.706,-53.473 L 71.612,-54.28 M 72.092,-64.091 L 57.481,-65.213 M 76.043,-68.132 L 58.529,-69.477 M 76.779,-72.419 L 59.937,-73.712 M 50.124,-181.459 L 39.452,-186.07 M 54.679,-184.21 L 42.511,-189.467 M 54.349,-189.07 L 42.364,-194.248 M 38.523,23.524 L 15.974,24.33 M 35.715,19.291 L 19.619,19.866 M 32.907,15.057 L 17.209,15.618 M 99.646,-159.678 L 100.159,-178.561 M 104.057,-162.54 L 104.481,-178.146 M 108.3,-159.248 L 108.836,-178.988 M 98.738,-113.571 L 97.741,-93.97 M 94.454,-114.599 L 93.541,-96.647 M 89.663,-105.674 L 89.421,-100.909 M 73.905,-94.379 L 97.864,-96.388 M 76.813,-90.276 L 93.571,-91.682 M 78.278,-86.053 L 90.938,-87.115 M 82.074,-185.606 L 64.142,-189.924 M 81.608,-190.173 L 69.416,-193.109 M 82.306,-194.46 L 62.71,-199.179 M 91.471,-160.997 L 88.497,-169.438 M 95.735,-161.928 L 91.306,-174.499 M 99.752,-163.561 L 95.759,-174.894 M 114.688,-159.115 L 97.85,-152.266 M 108.354,-161.214 L 99.107,-157.453 M 104.101,-164.16 L 100.364,-162.64 M 76.629,-30.807 L 77.845,-47.924 M 81.02,-31.495 L 81.948,-44.546 M 85.173,-28.823 L 86.264,-44.187 M 89.153,-49.868 L 74.443,-50.649 M 91.662,-54.072 L 72.641,-55.083 M 92.321,-58.374 L 72.276,-59.439 M 81.842,-43.061 L 96.699,-50.44 M 85.987,-40.283 L 99.522,-47.006 M 85.631,-35.27 L 99.273,-42.046 M -67.341,37.406 L -79.617,38.968 M -61.631,32.314 L -75.559,34.086 M -62.897,28.108 L -71.501,29.203 M 72.889,-171.743 L 58.934,-183.24 M 75.327,-175.346 L 60.386,-187.656 M 77.765,-178.949 L 64.569,-189.821 M 8.837,44.892 L -4.365,34.113 M 13.266,42.916 L -2.694,29.887 M 16.677,40.109 L -0.239,26.299 M 81.673,-70.261 L 78.098,-59.13 M 77.195,-70.483 L 74.867,-63.236 M 73.352,-72.682 L 71.99,-68.443 M -89.901,52.406 L -112.742,37.94 M -88.434,48.209 L -103.347,38.763 M -87.379,43.75 L -97.885,37.096 M 96.2,-65.321 L 85.006,-79.184 M 98.609,-69.233 L 84.598,-86.583 M 103.206,-70.435 L 92.634,-83.526 M 20.376,41.758 L 18.565,24.237 M 24.705,41.516 L 22.903,24.082 M 29.023,41.159 L 27.241,23.927 M -5.826,49.809 L -18.996,45.449 M -2.028,46.504 L -18.195,41.151 M -2.453,41.801 L -17.553,36.801 M 19.252,30.891 L 7.29,32.446 M 18.807,26.581 L 2.675,28.678 M 21.627,21.847 L 4.095,24.126 M 12.366,54.781 L 9.796,40.083 M 16.371,52.536 L 13.785,37.748 M 20.826,52.87 L 18.09,37.225 M 86.367,-58.69 L 81.583,-69.983 M 91.179,-58.435 L 85.168,-72.624 M 96.422,-57.162 L 89.396,-73.747 M 111.647,-102.925 L 101.875,-92.797 M 110.98,-108.471 L 97.783,-94.793 M 105.168,-108.686 L 98.118,-101.379 M 98.689,-81.499 L 92.293,-96.091 M 102.759,-83.003 L 97.699,-94.546 M 107.558,-82.842 L 102.782,-93.737 M 94.153,-24.357 L 81.22,-24.368 M 95.8,-28.687 L 77.175,-28.703 M 96.97,-33.017 L 85.471,-33.027 M 3.445,14.827 L -8.488,17.917 M 6.496,9.563 L -10.034,13.843 M -1.824,7.243 L -6.355,8.416 M 38.538,43.865 L 27.782,29.155 M 41.769,40.946 L 29.272,23.855 M 44.724,37.648 L 34.501,23.668 M 98.409,-60.017 L 102.548,-71.249 M 101.362,-55.506 L 108.361,-74.496 M 105.559,-54.368 L 111.947,-71.702 M 101.47,-121.849 L 112.827,-126.122 M 100.147,-116.724 L 111.835,-121.121 M 98.634,-111.527 L 115.773,-117.975 M 97.94,-134.038 L 110.431,-137.395 M 98.68,-129.752 L 112.166,-133.376 M 102.114,-126.19 L 112.782,-129.057 M 73.909,19.86 L 61.33,10.443 M 78.118,17.6 L 65.023,7.798 M 82.262,15.292 L 68.716,5.152 M 87.674,-2.647 L 77.798,11.95 M 84.27,-5.345 L 74.327,9.352 M 78.111,-3.971 L 75.678,-0.375 M 79.77,-186.161 L 78.38,-190.951 M 85.798,-180.933 L 81.838,-194.573 M 89.943,-182.192 L 85.426,-197.75 M -0.163,3.072 L -7.962,-7.729 M 2.484,-0.661 L -5.673,-11.957 M 7.006,-1.797 L -1.775,-13.957 M 50.422,45.907 L 35.235,46.895 M 50.135,41.586 L 37.474,42.409 M 44.688,37.599 L 39.566,37.933 M 90.842,13.912 L 87.804,-6.125 M 95.054,12.799 L 92.161,-6.282 M 99.12,10.72 L 96.911,-3.846 M 96.571,-5.161 L 84.445,-11.844 M 101.977,-7.127 L 87.133,-15.308 M 103.754,-11.093 L 87.877,-19.843 M 89.283,24.319 L 70.88,21.874 M 88.44,19.837 L 70.739,17.486 M 81.216,14.509 L 72.429,13.342 M 105.86,-181.013 L 89.58,-179.969 M 105.973,-185.36 L 89.333,-184.293 M 104.914,-189.633 L 88.096,-188.554 M 93.692,-48.946 L 81.264,-54.624 M 98.706,-51.417 L 82.315,-58.906 M 96.39,-57.237 L 90.557,-59.902 M 82.841,43.753 L 71.006,31.831 M 88.564,43.371 L 74.597,29.301 M 89.829,38.498 L 73.699,22.249 M 105.711,32.634 L 88.177,36.832 M 103.831,28.631 L 84.604,33.234 M 101.682,24.692 L 81.032,29.636 M 106.113,52.391 L 90.684,42.472 M 107.196,47.939 L 94.501,39.777 M 108.638,43.717 L 95.283,35.131 M 100.964,38.783 L 114.114,30.949 M 105.034,41.4 L 118.728,33.242 M 104.948,46.493 L 121.442,36.667 M 94.475,44.909 L 83.731,52.188 M 98.312,37.078 L 83.593,47.05 M 89.293,37.957 L 85.644,40.429 M 119.182,27.117 L 105.188,29.891 M 118.368,22.863 L 101.649,26.178 M 117.455,18.628 L 101.92,21.708 M 90.454,11.352 L 96.768,25.868 M 85.433,10.666 L 92.49,26.892 M 84.469,19.31 L 86.486,23.947 M 74.065,-85.045 L 66.996,-87.088 M 77.755,-88.487 L 64.841,-92.219 M 80.781,-92.121 L 67.434,-95.978 M 24.491,39.444 L 28.823,39.223 M 19.283,44.048 L 32.073,43.393 M 20.035,48.346 L 31.525,47.758 M 111.738,-82.396 L 104.736,-70.468 M 107.31,-83.409 L 101.172,-72.952 M 102.456,-83.694 L 98.264,-76.554 M 85.855,-196.271 L 98.671,-203.592 M 87.097,-191.993 L 100.906,-199.88 M 90.027,-188.678 L 103.3,-196.26 M 156.71,-53.674 L 146.369,-64.656 M 161.923,-54.456 L 148.779,-68.415 M 165.291,-57.198 L 151.676,-71.655 M 147.073,-63.908 L 136.162,-58.494 M 152.079,-71.227 L 136.826,-63.658 M 150.458,-75.258 L 132.817,-66.504 M 156.404,-44.482 L 158.453,-58.142 M 160.951,-45.595 L 163.048,-59.58 M 165.51,-46.793 L 167.88,-62.597 M 139.116,-50.984 L 123.401,-61.413 M 139.821,-55.714 L 127.797,-63.694 M 140.341,-60.567 L 128.296,-68.561 M 110.551,-59.424 L 125.327,-66.807 M 114.894,-56.752 L 123.754,-61.179 M 114.958,-51.942 L 127.916,-58.417 M 141.39,21.613 L 130.111,35.377 M 139.064,17.618 L 127.498,31.732 M 135.931,14.607 L 126.156,26.537 M 134.774,-67.475 L 124.903,-74.315 M 139.205,-69.674 L 126.304,-78.613 M 143.636,-71.873 L 130.055,-81.283 M 106.987,-70.768 L 120.501,-76.162 M 110.384,-67.46 L 125.873,-73.642 M 108.369,-61.993 L 122.5,-67.633 M 108.391,-45.515 L 108.006,-61.009 M 112.69,-46.86 L 112.356,-60.326 M 116.873,-52.899 L 116.754,-57.681 M 175.48,19.438 L 165.277,6.528 M 179.939,18.095 L 168.766,3.957 M 181.158,12.652 L 170.841,-0.403 M 169.667,5.098 L 170.329,-11.048 M 174.061,3.671 L 174.585,-9.128 M 178.182,8.886 L 178.949,-9.837 M 161.06,47.235 L 149.083,36.34 M 164.171,44.209 L 150.151,31.457 M 166.426,40.406 L 153.224,28.398 M 187.421,9.937 L 181.792,29.901 M 182.895,10.028 L 177.776,28.182 M 177.124,14.533 L 174.198,24.913 M 162.856,37.158 L 164.631,25.178 M 166.291,43.528 L 168.684,27.373 M 170.914,41.876 L 173.397,25.113 M 173.349,48.355 L 155.679,50.077 M 172.843,44.053 L 159.04,45.398 M 166.347,40.334 L 160.533,40.9 M 173.33,25.566 L 179.455,22.226 M 172.535,30.933 L 177.812,28.056 M 171.74,36.3 L 185.215,28.952 M 182.86,46.548 L 170.972,41.488 M 186.571,43.42 L 171.628,37.06 M 186.103,38.514 L 175.757,34.11 M 202.319,13.721 L 184.982,18.585 M 197.386,10.606 L 186.36,13.7 M 199.62,5.481 L 182.85,10.187 M 183.336,24.424 L 196.286,24.386 M 182.113,28.759 L 198.538,28.711 M 177.601,33.104 L 198.137,33.043 M 186.293,9.22 L 183.474,-5.876 M 190.48,8.046 L 187.831,-6.141 M 194.667,6.871 L 191.663,-9.216 M 192.094,34.969 L 194.428,50.945 M 187.788,35.461 L 190.144,51.577 M 184.442,42.514 L 186.15,54.202 M 138.558,43.499 L 130.607,34.773 M 144.153,43.207 L 133.381,31.387 M 147.062,39.969 L 136.155,28.001 M 154.649,41.403 L 141.613,50.952 M 151.38,38.429 L 138.022,48.214 M 145.015,37.723 L 141.5,40.297 M 183.485,-17.844 L 201.359,-17.866 M 180.991,-13.51 L 200.001,-13.534 M 184.68,-9.183 L 191.667,-9.192 M 184.127,-13.514 L 182.44,-6.554 M 181.744,-22.071 L 177.338,-3.889 M 177.797,-24.174 L 173.027,-4.49 M 142.634,50.204 L 122.5,47.05 M 141.527,45.647 L 123.13,42.764 M 135.687,40.348 L 122.216,38.237 M 123.927,42.889 L 119.106,38.059 M 125.994,38.829 L 118.689,31.509 M 133.248,39.965 L 120.888,27.582 M 192.663,-17.856 L 172.683,-30.59 M 187.729,-26.136 L 172.997,-35.526 M 188.627,-30.7 L 174.203,-39.893 M 153.602,-69.61 L 149.499,-69.947 M 160.146,-73.42 L 148.652,-74.362 M 162.776,-77.55 L 144.101,-79.081 M 176.622,-72.751 L 176.849,-59.014 M 172.289,-72.833 L 172.518,-58.979 M 167.941,-73.823 L 168.217,-57.087 M 168.098,-64.271 L 157.15,-73.665 M 168.003,-70.06 L 158.905,-77.867 M 172.301,-72.079 L 161.773,-81.113 M 168.186,-58.961 L 172.512,-59.314 M 166.665,-54.491 L 182.551,-55.787 M 166.005,-50.092 L 179.907,-51.225 M 178.634,-37.069 L 183.498,-49.237 M 182.351,-34.7 L 188.484,-50.041 M 186.069,-32.331 L 191.426,-45.732 M 183.004,-62.854 L 189.263,-49.139 M 181.507,-55.702 L 186.433,-44.909 M 176.917,-55.327 L 178.829,-51.138 M 102.103,-202.379 L 109.656,-187.89 M 101.072,-194.987 L 103.897,-189.567 M 97.308,-192.837 L 99.171,-189.264 M 151.28,32.483 L 149.255,20.507 M 155.301,30.286 L 153.269,18.262 M 160.491,35.008 L 157.343,16.377 M 199.641,-28.088 L 189.407,-19.931 M 195.53,-30.35 L 185.545,-22.392 M 191.228,-32.461 L 185.265,-27.707 M 179.883,-55.569 L 174.961,-82.957 M 182.317,-66.51 L 179.467,-82.373 M 186.952,-65.209 L 183.614,-83.783 M 184.546,-78.596 L 200.523,-79.175 M 185.32,-74.289 L 202.557,-74.914 M 186.094,-69.983 L 201.603,-70.546 M 185.103,-58.255 L 178.838,-61.385 M 191.575,-59.864 L 177.882,-66.704 M 186.595,-67.193 L 181.761,-69.608 M 203.373,-53.381 L 186.141,-44.18 M 203.116,-58.154 L 188.669,-50.44 M 198.517,-60.608 L 186.868,-54.388 M 189.698,-60.801 L 189.855,-70.12 M 193.986,-58.189 L 194.189,-70.277 M 198.357,-60.523 L 198.524,-70.434" fill="#CCCECE" stroke="#222022" stroke-width="0.8" stroke-linejoin="round" stroke-linecap="butt"/></g><g><path d=" M 0,0"/><path d=" M -30,0 L -30,-60 L 60,-60 L 60,0 L -30,0 M -150,30 L -150,-60 L -60,-60 L -60,30 L -150,30 M 90,30 L 90,-60 L 180,-60 L 180,30 L 90,30 M -60,-90 L -60,-180 L 90,-180 L 90,-90 L -60,-90 M -270,-90 L -270,-180 L -90,-180 L -90,-90 L -270,-90 M -270,-210 L -270,-270 L -180,-270 L -180,-210 L -270,-210 M 0,30 L 0,0 L 30,0 L 30,30 L 0,30 M -37.5,-30 L -30,-30 L -30,0 L -37.5,0 L -37.5,-6 L -52.5,-6 L -52.5,0 L -60,0 L -60,-30 L -52.5,-30 L -52.5,-24 L -37.5,-24 L -37.5,-30 M 67.5,0 L 60,0 L 60,-30 L 67.5,-30 L 67.5,-24 L 82.5,-24 L 82.5,-30 L 90,-30 L 90,0 L 82.5,0 L 82.5,-6 L 67.5,-6 L 67.5,0 M 30,-67.5 L 30,-60 L 0,-60 L 0,-67.5 L 6,-67.5 L 6,-82.5 L 0,-82.5 L 0,-90 L 30,-90 L 30,-82.5 L 24,-82.5 L 24,-67.5 L 30,-67.5 M -67.5,-150 L -60,-150 L -60,-120 L -67.5,-120 L -67.5,-126 L -82.5,-126 L -82.5,-120 L -90,-120 L -90,-150 L -82.5,-150 L -82.5,-144 L -67.5,-144 L -67.5,-150 M -210,-187.5 L -210,-180 L -240,-180 L -240,-187.5 L -234,-187.5 L -234,-202.5 L -240,-202.5 L -240,-210 L -210,-210 L -210,-202.5 L -216,-202.5 L -216,-187.5 L -210,-187.5 M -120,-67.5 L -120,-60 L -150,-60 L -150,-67.5 L -144,-67.5 L -144,-82.5 L -150,-82.5 L -150,-90 L -120,-90 L -120,-82.5 L -126,-82.5 L -126,-67.5 L -120,-67.5" stroke="#222022" stroke-width="6" stroke-linejoin="round" stroke-linecap="butt"/><path d=" M -30,0 L -30,-60 L 60,-60 L 60,0 L -30,0" fill="#F8F8F4"/><path d=" M -150,30 L -150,-60 L -60,-60 L -60,30 L -150,30" fill="#F8F8F4"/><path d=" M 90,30 L 90,-60 L 180,-60 L 180,30 L 90,30" fill="#F8F8F4"/><path d=" M -60,-90 L -60,-180 L 90,-180 L 90,-90 L -60,-90" fill="#F8F8F4"/><path d=" M -270,-90 L -270,-180 L -90,-180 L -90,-90 L -270,-90" fill="#F8F8F4"/><path d=" M -270,-210 L -270,-270 L -180,-270 L -180,-210 L -270,-210" fill="#F8F8F4"/><path d=" M 0,30 L 0,0 L 30,0 L 30,30 L 0,30" fill="#F8F8F4"/><path d=" M -37.5,-30 L -30,-30 L -30,0 L -37.5,0 L -37.5,-6 L -52.5,-6 L -52.5,0 L -60,0 L -60,-30 L -52.5,-30 L -52.5,-24 L -37.5,-24 L -37.5,-30" fill="#F8F8F4"/><path d=" M 67.5,0 L 60,0 L 60,-30 L 67.5,-30 L 67.5,-24 L 82.5,-24 L 82.5,-30 L 90,-30 L 90,0 L 82.5,0 L 82.5,-6 L 67.5,-6 L 67.5,0" fill="#F8F8F4"/><path d=" M 30,-67.5 L 30,-60 L 0,-60 L 0,-67.5 L 6,-67.5 L 6,-82.5 L 0,-82.5 L 0,-90 L 30,-90 L 30,-82.5 L 24,-82.5 L 24,-67.5 L 30,-67.5" fill="#F8F8F4"/><path d=" M -67.5,-150 L -60,-150 L -60,-120 L -67.5,-120 L -67.5,-126 L -82.5,-126 L -82.5,-120 L -90,-120 L -90,-150 L -82.5,-150 L -82.5,-144 L -67.5,-144 L -67.5,-150" fill="#F8F8F4"/><path d=" M -210,-187.5 L -210,-180 L -240,-180 L -240,-187.5 L -234,-187.5 L -234,-202.5 L -240,-202.5 L -240,-210 L -210,-210 L -210,-202.5 L -216,-202.5 L -216,-187.5 L -210,-187.5" fill="#F8F8F4"/><path d=" M -120,-67.5 L -120,-60 L -150,-60 L -150,-67.5 L -144,-67.5 L -144,-82.5 L -150,-82.5 L -150,-90 L -120,-90 L -120,-82.5 L -126,-82.5 L -126,-67.5 L -120,-67.5" fill="#F8F8F4"/><path d=" M 0,0 L 30,0 M -60,0 L -60,-30 M -30,0 L -30,-30 M 90,-30 L 90,0 M 60,-30 L 60,0 M 0,-90 L 30,-90 M 0,-60 L 30,-60 M -90,-120 L -90,-150 M -60,-120 L -60,-150 M -240,-210 L -210,-210 M -240,-180 L -210,-180 M -150,-90 L -120,-90 M -150,-60 L -120,-60" stroke="#F8F8F4" stroke-width="1" stroke-linejoin="round" stroke-linecap="butt"/></g><g><path d=" M 0,0"/><path d=" M 91.5,-122.141 L 91.5,-124.329 L 90.094,-124.259 L 84.686,-125.002 L 79.216,-124.647 L 73.81,-125.813 L 69.547,-122.178 L 69.547,-122.178 L 73.924,-125.253 L 79.092,-123.621 L 84.559,-123.464 L 89.906,-122.211 L 91.5,-122.141" fill="#222022"/><path d=" M -30,-30 L -29.25,-30 M -24.538,-30 L -23.788,-30 M -19.076,-30 L -18.326,-30 M -13.615,-30 L -12.865,-30 M -8.153,-30 L -7.403,-30 M -2.691,-30 L -1.941,-30 M 2.771,-30 L 3.521,-30 M 8.232,-30 L 8.982,-30 M 13.694,-30 L 14.444,-30 M 19.156,-30 L 19.906,-30 M 24.618,-30 L 25.368,-30 M 30.08,-30 L 30.83,-30 M 35.541,-30 L 36.291,-30 M 41.003,-30 L 41.753,-30 M 46.465,-30 L 47.215,-30 M 51.927,-30 L 52.677,-30 M 57.388,-30 L 58.138,-30 M 0,-60 L 0,-59.25 M 0,-53.253 L 0,-52.503 M 0,-46.506 L 0,-45.756 M 0,-39.76 L 0,-39.01 M 0,-33.013 L 0,-32.263 M 0,-26.266 L 0,-25.516 M 0,-19.519 L 0,-18.769 M 0,-12.773 L 0,-12.023 M 0,-6.026 L 0,-5.276 M 30,-60 L 30,-59.25 M 30,-53.296 L 30,-52.546 M 30,-46.592 L 30,-45.842 M 30,-39.888 L 30,-39.138 M 30,-33.184 L 30,-32.434 M 30,-26.48 L 30,-25.73 M 30,-19.775 L 30,-19.025 M 30,-13.071 L 30,-12.321 M 30,-6.367 L 30,-5.617 M -150,-30 L -149.25,-30 M -143.945,-30 L -143.195,-30 M -137.891,-30 L -137.141,-30 M -131.836,-30 L -131.086,-30 M -125.781,-30 L -125.031,-30 M -119.727,-30 L -118.977,-30 M -113.672,-30 L -112.922,-30 M -107.617,-30 L -106.867,-30 M -101.563,-30 L -100.813,-30 M -95.508,-30 L -94.758,-30 M -89.453,-30 L -88.703,-30 M -83.399,-30 L -82.649,-30 M -77.344,-30 L -76.594,-30 M -71.289,-30 L -70.539,-30 M -65.235,-30 L -64.485,-30 M -150,0 L -149.25,0 M -144.182,0 L -143.432,0 M -138.363,0 L -137.613,0 M -132.545,0 L -131.795,0 M -126.726,0 L -125.976,0 M -120.908,0 L -120.158,0 M -115.09,0 L -114.34,0 M -109.271,0 L -108.521,0 M -103.453,0 L -102.703,0 M -97.635,0 L -96.885,0 M -91.816,0 L -91.066,0 M -85.998,0 L -85.248,0 M -80.179,0 L -79.429,0 M -74.361,0 L -73.611,0 M -68.543,0 L -67.793,0 M -62.724,0 L -61.974,0 M -120,-60 L -120,-59.25 M -120,-54.563 L -120,-53.813 M -120,-49.126 L -120,-48.376 M -120,-43.689 L -120,-42.939 M -120,-38.252 L -120,-37.502 M -120,-32.815 L -120,-32.065 M -120,-27.377 L -120,-26.627 M -120,-21.94 L -120,-21.19 M -120,-16.503 L -120,-15.753 M -120,-11.066 L -120,-10.316 M -120,-5.629 L -120,-4.879 M -120,-0.192 L -120,0.558 M -120,5.245 L -120,5.995 M -120,10.682 L -120,11.432 M -120,16.119 L -120,16.869 M -120,21.556 L -120,22.306 M -120,26.994 L -120,27.744 M -90,-60 L -90,-59.25 M -90,-53.417 L -90,-52.667 M -90,-46.834 L -90,-46.084 M -90,-40.251 L -90,-39.501 M -90,-33.668 L -90,-32.918 M -90,-27.085 L -90,-26.335 M -90,-20.502 L -90,-19.752 M -90,-13.919 L -90,-13.169 M -90,-7.336 L -90,-6.586 M -90,-0.753 L -90,-0.003 M -90,5.83 L -90,6.58 M -90,12.413 L -90,13.163 M -90,18.996 L -90,19.746 M -90,25.579 L -90,26.329 M 90,-30 L 90.75,-30 M 96.425,-30 L 97.175,-30 M 102.851,-30 L 103.601,-30 M 109.276,-30 L 110.026,-30 M 115.701,-30 L 116.451,-30 M 122.126,-30 L 122.876,-30 M 128.552,-30 L 129.302,-30 M 134.977,-30 L 135.727,-30 M 141.402,-30 L 142.152,-30 M 147.828,-30 L 148.578,-30 M 154.253,-30 L 155.003,-30 M 160.678,-30 L 161.428,-30 M 167.103,-30 L 167.853,-30 M 173.529,-30 L 174.279,-30 M 179.954,-30 L 180,-30 M 90,0 L 90.75,0 M 96.111,0 L 96.861,0 M 102.221,0 L 102.971,0 M 108.332,0 L 109.082,0 M 114.442,0 L 115.192,0 M 120.553,0 L 121.303,0 M 126.663,0 L 127.413,0 M 132.774,0 L 133.524,0 M 138.884,0 L 139.634,0 M 144.995,0 L 145.745,0 M 151.105,0 L 151.855,0 M 157.216,0 L 157.966,0 M 163.326,0 L 164.076,0 M 169.437,0 L 170.187,0 M 175.547,0 L 176.297,0 M 120,-60 L 120,-59.25 M 120,-54.719 L 120,-53.969 M 120,-49.439 L 120,-48.689 M 120,-44.158 L 120,-43.408 M 120,-38.877 L 120,-38.127 M 120,-33.597 L 120,-32.847 M 120,-28.316 L 120,-27.566 M 120,-23.035 L 120,-22.285 M 120,-17.755 L 120,-17.005 M 120,-12.474 L 120,-11.724 M 120,-7.193 L 120,-6.443 M 120,-1.912 L 120,-1.162 M 120,3.368 L 120,4.118 M 120,8.649 L 120,9.399 M 120,13.93 L 120,14.68 M 120,19.21 L 120,19.96 M 120,24.491 L 120,25.241 M 120,29.772 L 120,30 M 150,-60 L 150,-59.25 M 150,-54.068 L 150,-53.318 M 150,-48.136 L 150,-47.386 M 150,-42.204 L 150,-41.454 M 150,-36.272 L 150,-35.522 M 150,-30.34 L 150,-29.59 M 150,-24.408 L 150,-23.658 M 150,-18.476 L 150,-17.726 M 150,-12.544 L 150,-11.794 M 150,-6.612 L 150,-5.862 M 150,-0.68 L 150,0.07 M 150,5.252 L 150,6.002 M 150,11.184 L 150,11.934 M 150,17.116 L 150,17.866 M 150,23.048 L 150,23.798 M 150,28.98 L 150,29.73 M -60,-150 L -59.25,-150 M -54.136,-150 L -53.386,-150 M -48.272,-150 L -47.522,-150 M -42.408,-150 L -41.658,-150 M -36.544,-150 L -35.794,-150 M -30.68,-150 L -29.93,-150 M -24.816,-150 L -24.066,-150 M -18.952,-150 L -18.202,-150 M -13.088,-150 L -12.338,-150 M -7.224,-150 L -6.474,-150 M -1.36,-150 L -0.61,-150 M 4.504,-150 L 5.254,-150 M 10.368,-150 L 11.118,-150 M 16.232,-150 L 16.982,-150 M 22.096,-150 L 22.846,-150 M 27.96,-150 L 28.71,-150 M 33.824,-150 L 34.574,-150 M 39.688,-150 L 40.438,-150 M 45.552,-150 L 46.302,-150 M 51.416,-150 L 52.166,-150 M 57.279,-150 L 58.029,-150 M 63.143,-150 L 63.893,-150 M 69.007,-150 L 69.757,-150 M 74.871,-150 L 75.621,-150 M 80.735,-150 L 81.485,-150 M 86.599,-150 L 87.349,-150 M -60,-120 L -59.25,-120 M -54.62,-120 L -53.87,-120 M -49.24,-120 L -48.49,-120 M -43.86,-120 L -43.11,-120 M -38.48,-120 L -37.73,-120 M -33.1,-120 L -32.35,-120 M -27.72,-120 L -26.97,-120 M -22.34,-120 L -21.59,-120 M -16.96,-120 L -16.21,-120 M -11.58,-120 L -10.83,-120 M -6.2,-120 L -5.45,-120 M -0.82,-120 L -0.07,-120 M 4.56,-120 L 5.31,-120 M 9.94,-120 L 10.69,-120 M 15.32,-120 L 16.07,-120 M 20.7,-120 L 21.45,-120 M 26.08,-120 L 26.83,-120 M 31.46,-120 L 32.21,-120 M 36.84,-120 L 37.59,-120 M 42.22,-120 L 42.97,-120 M 47.6,-120 L 48.35,-120 M 52.98,-120 L 53.73,-120 M 58.36,-120 L 59.11,-120 M 63.74,-120 L 64.49,-120 M 69.12,-120 L 69.87,-120 M 74.5,-120 L 75.25,-120 M 79.88,-120 L 80.63,-120 M 85.26,-120 L 86.01,-120 M -30,-180 L -30,-179.25 M -30,-173.843 L -30,-173.093 M -30,-167.686 L -30,-166.936 M -30,-161.529 L -30,-160.779 M -30,-155.373 L -30,-154.623 M -30,-149.216 L -30,-148.466 M -30,-143.059 L -30,-142.309 M -30,-136.902 L -30,-136.152 M -30,-130.745 L -30,-129.995 M -30,-124.588 L -30,-123.838 M -30,-118.431 L -30,-117.681 M -30,-112.274 L -30,-111.524 M -30,-106.118 L -30,-105.368 M -30,-99.961 L -30,-99.211 M -30,-93.804 L -30,-93.054 M 0,-180 L 0,-179.25 M 0,-173.962 L 0,-173.212 M 0,-167.923 L 0,-167.173 M 0,-161.885 L 0,-161.135 M 0,-155.846 L 0,-155.096 M 0,-149.808 L 0,-149.058 M 0,-143.769 L 0,-143.019 M 0,-137.731 L 0,-136.981 M 0,-131.692 L 0,-130.942 M 0,-125.654 L 0,-124.904 M 0,-119.615 L 0,-118.865 M 0,-113.577 L 0,-112.827 M 0,-107.538 L 0,-106.788 M 0,-101.5 L 0,-100.75 M 0,-95.461 L 0,-94.711 M 30,-180 L 30,-179.25 M 30,-173.893 L 30,-173.143 M 30,-167.786 L 30,-167.036 M 30,-161.68 L 30,-160.93 M 30,-155.573 L 30,-154.823 M 30,-149.466 L 30,-148.716 M 30,-143.359 L 30,-142.609 M 30,-137.252 L 30,-136.502 M 30,-131.145 L 30,-130.395 M 30,-125.039 L 30,-124.289 M 30,-118.932 L 30,-118.182 M 30,-112.825 L 30,-112.075 M 30,-106.718 L 30,-105.968 M 30,-100.611 L 30,-99.861 M 30,-94.504 L 30,-93.754 M 60,-180 L 60,-179.25 M 60,-174.395 L 60,-173.645 M 60,-168.789 L 60,-168.039 M 60,-163.184 L 60,-162.434 M 60,-157.579 L 60,-156.829 M 60,-151.974 L 60,-151.224 M 60,-146.368 L 60,-145.618 M 60,-140.763 L 60,-140.013 M 60,-135.158 L 60,-134.408 M 60,-129.553 L 60,-128.803 M 60,-123.947 L 60,-123.197 M 60,-118.342 L 60,-117.592 M 60,-112.737 L 60,-111.987 M 60,-107.132 L 60,-106.382 M 60,-101.526 L 60,-100.776 M 60,-95.921 L 60,-95.171 M 60,-90.316 L 60,-90 M -270,-150 L -269.25,-150 M -264.167,-150 L -263.417,-150 M -258.334,-150 L -257.584,-150 M -252.501,-150 L -251.751,-150 M -246.668,-150 L -245.918,-150 M -240.835,-150 L -240.085,-150 M -235.002,-150 L -234.252,-150 M -229.169,-150 L -228.419,-150 M -223.336,-150 L -222.586,-150 M -217.503,-150 L -216.753,-150 M -211.67,-150 L -210.92,-150 M -205.837,-150 L -205.087,-150 M -200.004,-150 L -199.254,-150 M -194.171,-150 L -193.421,-150 M -188.338,-150 L -187.588,-150 M -182.506,-150 L -181.756,-150 M -176.673,-150 L -175.923,-150 M -170.84,-150 L -170.09,-150 M -165.007,-150 L -164.257,-150 M -159.174,-150 L -158.424,-150 M -153.341,-150 L -152.591,-150 M -147.508,-150 L -146.758,-150 M -141.675,-150 L -140.925,-150 M -135.842,-150 L -135.092,-150 M -130.009,-150 L -129.259,-150 M -124.176,-150 L -123.426,-150 M -118.343,-150 L -117.593,-150 M -112.51,-150 L -111.76,-150 M -106.677,-150 L -105.927,-150 M -100.844,-150 L -100.094,-150 M -95.011,-150 L -94.261,-150 M -270,-120 L -269.25,-120 M -264.407,-120 L -263.657,-120 M -258.814,-120 L -258.064,-120 M -253.221,-120 L -252.471,-120 M -247.628,-120 L -246.878,-120 M -242.034,-120 L -241.284,-120 M -236.441,-120 L -235.691,-120 M -230.848,-120 L -230.098,-120 M -225.255,-120 L -224.505,-120 M -219.662,-120 L -218.912,-120 M -214.069,-120 L -213.319,-120 M -208.476,-120 L -207.726,-120 M -202.883,-120 L -202.133,-120 M -197.29,-120 L -196.54,-120 M -191.697,-120 L -190.947,-120 M -186.103,-120 L -185.353,-120 M -180.51,-120 L -179.76,-120 M -174.917,-120 L -174.167,-120 M -169.324,-120 L -168.574,-120 M -163.731,-120 L -162.981,-120 M -158.138,-120 L -157.388,-120 M -152.545,-120 L -151.795,-120 M -146.952,-120 L -146.202,-120 M -141.359,-120 L -140.609,-120 M -135.766,-120 L -135.016,-120 M -130.172,-120 L -129.422,-120 M -124.579,-120 L -123.829,-120 M -118.986,-120 L -118.236,-120 M -113.393,-120 L -112.643,-120 M -107.8,-120 L -107.05,-120 M -102.207,-120 L -101.457,-120 M -96.614,-120 L -95.864,-120 M -91.021,-120 L -90.271,-120 M -240,-180 L -240,-179.25 M -240,-174.289 L -240,-173.539 M -240,-168.579 L -240,-167.829 M -240,-162.868 L -240,-162.118 M -240,-157.157 L -240,-156.407 M -240,-151.447 L -240,-150.697 M -240,-145.736 L -240,-144.986 M -240,-140.026 L -240,-139.276 M -240,-134.315 L -240,-133.565 M -240,-128.604 L -240,-127.854 M -240,-122.894 L -240,-122.144 M -240,-117.183 L -240,-116.433 M -240,-111.472 L -240,-110.722 M -240,-105.762 L -240,-105.012 M -240,-100.051 L -240,-99.301 M -240,-94.341 L -240,-93.591 M -210,-180 L -210,-179.25 M -210,-174.415 L -210,-173.665 M -210,-168.83 L -210,-168.08 M -210,-163.244 L -210,-162.494 M -210,-157.659 L -210,-156.909 M -210,-152.074 L -210,-151.324 M -210,-146.489 L -210,-145.739 M -210,-140.903 L -210,-140.153 M -210,-135.318 L -210,-134.568 M -210,-129.733 L -210,-128.983 M -210,-124.148 L -210,-123.398 M -210,-118.563 L -210,-117.813 M -210,-112.977 L -210,-112.227 M -210,-107.392 L -210,-106.642 M -210,-101.807 L -210,-101.057 M -210,-96.222 L -210,-95.472 M -210,-90.636 L -210,-90 M -180,-180 L -180,-179.25 M -180,-173.772 L -180,-173.022 M -180,-167.544 L -180,-166.794 M -180,-161.315 L -180,-160.565 M -180,-155.087 L -180,-154.337 M -180,-148.859 L -180,-148.109 M -180,-142.631 L -180,-141.881 M -180,-136.402 L -180,-135.652 M -180,-130.174 L -180,-129.424 M -180,-123.946 L -180,-123.196 M -180,-117.718 L -180,-116.968 M -180,-111.489 L -180,-110.739 M -180,-105.261 L -180,-104.511 M -180,-99.033 L -180,-98.283 M -180,-92.805 L -180,-92.055 M -150,-180 L -150,-179.25 M -150,-173.974 L -150,-173.224 M -150,-167.948 L -150,-167.198 M -150,-161.922 L -150,-161.172 M -150,-155.896 L -150,-155.146 M -150,-149.87 L -150,-149.12 M -150,-143.844 L -150,-143.094 M -150,-137.818 L -150,-137.068 M -150,-131.792 L -150,-131.042 M -150,-125.767 L -150,-125.017 M -150,-119.741 L -150,-118.991 M -150,-113.715 L -150,-112.965 M -150,-107.689 L -150,-106.939 M -150,-101.663 L -150,-100.913 M -150,-95.637 L -150,-94.887 M -120,-180 L -120,-179.25 M -120,-174.423 L -120,-173.673 M -120,-168.846 L -120,-168.096 M -120,-163.27 L -120,-162.52 M -120,-157.693 L -120,-156.943 M -120,-152.116 L -120,-151.366 M -120,-146.539 L -120,-145.789 M -120,-140.963 L -120,-140.213 M -120,-135.386 L -120,-134.636 M -120,-129.809 L -120,-129.059 M -120,-124.232 L -120,-123.482 M -120,-118.655 L -120,-117.905 M -120,-113.079 L -120,-112.329 M -120,-107.502 L -120,-106.752 M -120,-101.925 L -120,-101.175 M -120,-96.348 L -120,-95.598 M -120,-90.772 L -120,-90.022 M -270,-240 L -269.25,-240 M -263.473,-240 L -262.723,-240 M -256.947,-240 L -256.197,-240 M -250.42,-240 L -249.67,-240 M -243.894,-240 L -243.144,-240 M -237.367,-240 L -236.617,-240 M -230.841,-240 L -230.091,-240 M -224.314,-240 L -223.564,-240 M -217.788,-240 L -217.038,-240 M -211.261,-240 L -210.511,-240 M -204.735,-240 L -203.985,-240 M -198.208,-240 L -197.458,-240 M -191.682,-240 L -190.932,-240 M -185.155,-240 L -184.405,-240 M -240,-270 L -240,-269.25 M -240,-263.43 L -240,-262.68 M -240,-256.859 L -240,-256.109 M -240,-250.289 L -240,-249.539 M -240,-243.719 L -240,-242.969 M -240,-237.148 L -240,-236.398 M -240,-230.578 L -240,-229.828 M -240,-224.008 L -240,-223.258 M -240,-217.438 L -240,-216.688 M -240,-210.867 L -240,-210.117 M -210,-270 L -210,-269.25 M -210,-264.394 L -210,-263.644 M -210,-258.788 L -210,-258.038 M -210,-253.182 L -210,-252.432 M -210,-247.575 L -210,-246.825 M -210,-241.969 L -210,-241.219 M -210,-236.363 L -210,-235.613 M -210,-230.757 L -210,-230.007 M -210,-225.151 L -210,-224.401 M -210,-219.545 L -210,-218.795 M -210,-213.938 L -210,-213.188 M 0,0 L 0.75,0 M 5.888,0 L 6.638,0 M 11.776,0 L 12.526,0 M 17.664,0 L 18.414,0 M 23.551,0 L 24.301,0 M 29.439,0 L 30,0 M -60,0 L -60,-0.75 M -60,-6.174 L -60,-6.924 M -60,-12.348 L -60,-13.098 M -60,-18.522 L -60,-19.272 M -60,-24.696 L -60,-25.446 M -30,-30 L -30,-29.25 M -30,-23.583 L -30,-22.833 M -30,-17.165 L -30,-16.415 M -30,-10.748 L -30,-9.998 M -30,-4.33 L -30,-3.58 M 90,-30 L 90,-29.25 M 90,-23.817 L 90,-23.067 M 90,-17.633 L 90,-16.883 M 90,-11.45 L 90,-10.7 M 90,-5.267 L 90,-4.517 M 60,0 L 60,-0.75 M 60,-5.857 L 60,-6.607 M 60,-11.714 L 60,-12.464 M 60,-17.571 L 60,-18.321 M 60,-23.429 L 60,-24.179 M 60,-29.286 L 60,-30 M 0,-90 L 0.75,-90 M 5.775,-90 L 6.525,-90 M 11.55,-90 L 12.3,-90 M 17.326,-90 L 18.076,-90 M 23.101,-90 L 23.851,-90 M 28.876,-90 L 29.626,-90 M 30,-60 L 29.25,-60 M 23.673,-60 L 22.923,-60 M 17.346,-60 L 16.596,-60 M 11.019,-60 L 10.269,-60 M 4.692,-60 L 3.942,-60 M -90,-120 L -90,-120.75 M -90,-126.634 L -90,-127.384 M -90,-133.268 L -90,-134.018 M -90,-139.902 L -90,-140.652 M -90,-146.536 L -90,-147.286 M -60,-150 L -60,-149.25 M -60,-144.251 L -60,-143.501 M -60,-138.503 L -60,-137.753 M -60,-132.754 L -60,-132.004 M -60,-127.005 L -60,-126.255 M -60,-121.257 L -60,-120.507 M -240,-210 L -239.25,-210 M -234.391,-210 L -233.641,-210 M -228.783,-210 L -228.033,-210 M -223.174,-210 L -222.424,-210 M -217.565,-210 L -216.815,-210 M -211.957,-210 L -211.207,-210 M -210,-180 L -210.75,-180 M -216.183,-180 L -216.933,-180 M -222.367,-180 L -223.117,-180 M -228.55,-180 L -229.3,-180 M -234.733,-180 L -235.483,-180 M -150,-90 L -149.25,-90 M -144.392,-90 L -143.642,-90 M -138.785,-90 L -138.035,-90 M -133.177,-90 L -132.427,-90 M -127.57,-90 L -126.82,-90 M -121.962,-90 L -121.212,-90 M -120,-60 L -120.75,-60 M -126.176,-60 L -126.926,-60 M -132.351,-60 L -133.101,-60 M -138.527,-60 L -139.277,-60 M -144.702,-60 L -145.452,-60" fill="#222022" stroke="#222022" stroke-width="1.5" stroke-linejoin="round" stroke-linecap="butt"/></g><g clip-path="url(#instance2765)"><path d=" M 0,0"/><path d=" M 47.829,-204.309 L 49.947,-204.839 L 52.194,-205.475 L 54.57,-206.217 L 56.75,-206.601 L 58.732,-206.628 L 60.517,-206.296 L 62.105,-205.606 L 63.496,-204.559 L 64.689,-203.153 L 65.686,-201.39 L 66.486,-199.269 L 66.997,-197.155 L 67.218,-195.047 L 67.151,-192.947 L 66.795,-190.854 L 66.15,-188.767 L 65.215,-186.688 L 63.992,-184.616 L 62.48,-182.55 L 61.112,-180.514 L 59.887,-178.507 L 58.806,-176.529 L 57.868,-174.581 L 57.075,-172.661 L 56.425,-170.771 L 55.919,-168.911 L 55.557,-167.079 L 55.465,-165.235 L 55.644,-163.379 L 56.093,-161.511 L 56.813,-159.63 L 57.804,-157.737 L 59.065,-155.832 L 60.597,-153.914 L 62.4,-151.984 L 63.984,-150.059 L 65.35,-148.138 L 66.498,-146.222 L 67.427,-144.31 L 68.138,-142.404 L 68.63,-140.501 L 68.904,-138.604 L 68.96,-136.711 L 68.74,-134.834 L 68.245,-132.973 L 67.474,-131.128 L 66.427,-129.299 L 65.105,-127.486 L 63.507,-125.689 L 61.633,-123.907 L 59.484,-122.142 L 57.687,-120.361 L 56.242,-118.563 L 55.149,-116.75 L 54.408,-114.92 L 54.02,-113.075 L 53.984,-111.213 L 54.3,-109.336 L 54.968,-107.443 L 55.695,-105.539 L 56.48,-103.624 L 57.323,-101.7 L 58.225,-99.765 L 59.185,-97.819 L 60.204,-95.863 L 61.281,-93.897 L 62.417,-91.92 L 63.379,-89.907 L 64.168,-87.857 L 64.784,-85.77 L 65.227,-83.646 L 65.497,-81.486 L 65.593,-79.289 L 65.517,-77.055 L 65.267,-74.784 L 64.716,-72.836 L 63.865,-71.209 L 62.714,-69.903 L 61.263,-68.92 L 59.511,-68.258 L 57.458,-67.919 L 55.106,-67.901 L 52.452,-68.204 L 49.941,-68.405 L 47.572,-68.501 L 45.344,-68.494 L 43.259,-68.383 L 41.315,-68.168 L 39.514,-67.849 L 37.854,-67.427 L 36.336,-66.901 L 34.75,-66.277 L 33.096,-65.554 L 31.373,-64.732 L 29.582,-63.812 L 27.723,-62.793 L 25.796,-61.676 L 23.8,-60.46 L 21.737,-59.146 L 19.7,-58.146 L 17.69,-57.461 L 15.708,-57.091 L 13.752,-57.035 L 11.824,-57.294 L 9.922,-57.867 L 8.048,-58.755 L 6.2,-59.958 L 4.692,-61.284 L 3.524,-62.732 L 2.694,-64.304 L 2.204,-65.998 L 2.054,-67.816 L 2.243,-69.756 L 2.771,-71.82 L 3.639,-74.006 L 4.362,-76.133 L 4.94,-78.2 L 5.373,-80.208 L 5.661,-82.156 L 5.804,-84.044 L 5.803,-85.873 L 5.656,-87.642 L 5.365,-89.352 L 4.965,-91.104 L 4.454,-92.9 L 3.835,-94.738 L 3.105,-96.619 L 2.267,-98.543 L 1.318,-100.51 L 0.26,-102.52 L -0.907,-104.572 L -1.912,-106.581 L -2.754,-108.547 L -3.434,-110.469 L -3.951,-112.347 L -4.306,-114.182 L -4.498,-115.973 L -4.528,-117.721 L -4.395,-119.425 L -4.043,-121.1 L -3.472,-122.747 L -2.682,-124.364 L -1.672,-125.953 L -0.444,-127.513 L 1.003,-129.044 L 2.67,-130.546 L 4.556,-132.02 L 6.278,-133.431 L 7.836,-134.781 L 9.232,-136.069 L 10.463,-137.294 L 11.531,-138.458 L 12.436,-139.56 L 13.177,-140.6 L 13.754,-141.579 L 14.316,-142.659 L 14.862,-143.842 L 15.393,-145.127 L 15.908,-146.515 L 16.407,-148.005 L 16.89,-149.598 L 17.358,-151.293 L 17.81,-153.09 L 18.197,-154.807 L 18.519,-156.443 L 18.774,-157.998 L 18.965,-159.472 L 19.09,-160.866 L 19.149,-162.179 L 19.144,-163.411 L 19.072,-164.563 L 19.244,-165.798 L 19.659,-167.118 L 20.316,-168.522 L 21.217,-170.011 L 22.36,-171.583 L 23.747,-173.24 L 25.377,-174.98 L 27.249,-176.805 L 28.852,-178.63 L 30.184,-180.456 L 31.246,-182.282 L 32.039,-184.109 L 32.561,-185.936 L 32.813,-187.764 L 32.795,-189.592 L 32.508,-191.42 L 32.281,-193.112 L 32.116,-194.668 L 32.012,-196.088 L 31.969,-197.371 L 31.988,-198.518 L 32.068,-199.529 L 32.209,-200.404 L 32.412,-201.142 L 32.757,-201.775 L 33.245,-202.302 L 33.876,-202.724 L 34.649,-203.04 L 35.566,-203.251 L 36.625,-203.356 L 37.827,-203.355 L 39.171,-203.249 L 40.645,-203.249 L 42.247,-203.355 L 43.979,-203.567 L 45.839,-203.885 L 47.829,-204.309" fill="#CCCECE" stroke="#222022" stroke-width="1.5" stroke-linejoin="round" stroke-linecap="butt"/><path d=" M 49.862,-199.066 L 51.717,-199.741 L 51.717,-199.741 L 53.668,-200.534 L 55.42,-201.065 L 56.974,-201.333 L 57.307,-201.334 M 61.138,-191.172 L 60.519,-189.842 L 59.522,-188.116 L 58.299,-186.32 L 56.851,-184.454 L 56.05,-183.275 M 55.219,-181.981 L 54.352,-180.512 L 53.301,-178.436 L 52.383,-176.291 L 51.598,-174.075 L 50.946,-171.79 L 50.426,-169.435 L 50.039,-167.01 L 50.013,-166.451 M 52.876,-154.685 L 53.533,-153.603 L 55.085,-151.559 L 56.913,-149.57 L 57.151,-149.29 M 63.38,-139.345 L 63.591,-138.432 L 63.67,-137.24 L 63.465,-135.964 L 62.977,-134.606 L 62.841,-134.352 M 58.048,-128.22 L 56.271,-126.569 L 54.077,-124.712 L 52.243,-122.776 L 50.769,-120.761 L 49.654,-118.666 L 49.488,-118.187 M 48.943,-108.942 L 49.35,-107.459 M 55.521,-92.176 L 55.652,-91.936 L 56.734,-90.123 L 57.688,-88.349 L 58.514,-86.615 L 59.214,-84.921 L 59.786,-83.266 L 60.232,-81.651 L 60.379,-80.92 M 59.637,-74.375 L 59.243,-73.999 L 58.138,-73.467 L 56.742,-73.176 L 55.053,-73.125 L 53.073,-73.316 L 50.801,-73.748 L 48.585,-74.05 L 48.179,-74.082 M 43.031,-74.208 L 42.276,-74.176 L 40.286,-73.958 L 38.352,-73.61 L 36.475,-73.132 L 35.373,-72.765 M 23.425,-66.904 L 22.183,-66.086 L 20.441,-64.855 L 18.778,-63.859 L 17.195,-63.101 L 15.691,-62.579 L 15.187,-62.478 M 13.667,-62.272 L 12.923,-62.245 L 11.658,-62.433 L 10.473,-62.858 L 9.368,-63.519 L 8.511,-64.331 L 7.905,-65.294 L 7.547,-66.408 L 7.439,-67.673 L 7.58,-69.089 L 7.97,-70.655 L 8.61,-72.373 L 9.499,-74.241 L 9.591,-74.477 M 11.581,-86.522 L 11.443,-88.097 L 11.109,-90.188 L 10.674,-92.264 L 10.402,-93.31 M 6.025,-104.271 L 5.938,-104.437 L 4.794,-106.417 L 3.799,-108.288 L 3.556,-108.794 M 1.033,-116.161 L 0.942,-117.209 L 0.985,-118.312 L 1.245,-119.445 L 1.722,-120.608 L 2.417,-121.802 L 3.33,-123.025 L 4.459,-124.279 L 5.806,-125.562 L 7.371,-126.876 L 7.586,-127.038 M 14.707,-133.187 L 14.991,-133.477 L 15.742,-134.324 M 22.918,-149.043 L 23.126,-149.783 L 23.619,-151.745 L 24.028,-153.569 L 24.355,-155.255 L 24.598,-156.804 L 24.757,-158.215 L 24.834,-159.488 L 24.827,-160.623 L 24.777,-161.168 M 26.703,-167.528 L 27.619,-168.755 L 29.015,-170.405 L 30.672,-172.188 L 32.591,-174.103 L 34.242,-176.047 L 34.497,-176.411 M 37.083,-180.852 L 37.585,-182.058 L 38.163,-184.121 L 38.473,-186.214 L 38.515,-188.336 L 38.501,-188.47 M 39.298,-197.676 L 39.546,-197.644 L 40.733,-197.493 L 42.016,-197.46 L 43.394,-197.545 L 44.868,-197.748 L 46.437,-198.069 L 48.101,-198.508 M 49.776,-193.292 L 51.24,-194.006 L 51.24,-194.006 L 52.766,-194.851 L 54.091,-195.528 L 55.215,-196.038 L 56.139,-196.381 L 56.861,-196.557 L 57.382,-196.565 L 57.702,-196.406 L 57.822,-196.079 L 57.74,-195.586 L 57.496,-194.945 L 57.088,-194.158 L 57.052,-194.099 M 48.187,-181.175 L 47.796,-180.343 L 46.898,-178 L 46.121,-175.489 L 45.652,-173.569 M 50.991,-129.305 L 50.908,-129.23 L 49.081,-127.639 M 44.701,-103.741 L 44.723,-103.651 L 45.504,-100.921 L 46.326,-98.372 L 47.189,-96.002 L 47.448,-95.376 M 52.83,-85.423 L 52.86,-85.374 L 53.643,-84.072 L 54.345,-82.886 L 54.966,-81.816 L 55.364,-81.112 M 48.136,-79.504 L 47.228,-79.695 L 45.279,-79.943 L 43.3,-80.034 L 41.292,-79.969 L 39.256,-79.748 L 37.19,-79.371 L 37.035,-79.331 M 22.65,-73.177 L 22.075,-72.804 L 20.566,-71.712 L 19.145,-70.563 L 17.856,-69.572 L 16.699,-68.741 L 16.192,-68.407 M 8.582,-111.699 L 7.941,-112.933 L 7.443,-113.962 M 22.092,-132.873 L 22.861,-133.99 L 23.786,-135.51 L 24.663,-137.105 L 25.491,-138.777 L 26.269,-140.524 L 26.298,-140.595 M 29.653,-151.408 L 29.859,-152.331 L 30.191,-154.068 L 30.421,-155.61 L 30.49,-156.334 M 33.478,-166.63 L 34.283,-167.571 L 35.968,-169.396 L 37.933,-171.401 L 39.632,-173.464 L 40.745,-175.113 M 44.004,-190.143 L 43.835,-191.633 L 43.529,-193.315 L 43.153,-194.599 L 42.706,-195.487 L 42.188,-195.978 L 41.6,-196.071 L 40.941,-195.768 L 40.611,-195.451" stroke="#222022" stroke-width="1.5" stroke-linejoin="round" stroke-linecap="butt"/><clipPath id="instance2765" fill="#FFFFFF"><path d=" M 0,0"/><path d=" M -30,0 L -30,-60 L 60,-60 L 60,0 L -30,0" fill="#FF0000"/><path d=" M -150,30 L -150,-60 L -60,-60 L -60,30 L -150,30" fill="#FF0000"/><path d=" M 90,30 L 90,-60 L 180,-60 L 180,30 L 90,30" fill="#FF0000"/><path d=" M -60,-90 L -60,-180 L 90,-180 L 90,-90 L -60,-90" fill="#FF0000"/><path d=" M -270,-90 L -270,-180 L -90,-180 L -90,-90 L -270,-90" fill="#FF0000"/><path d=" M -270,-210 L -270,-270 L -180,-270 L -180,-210 L -270,-210" fill="#FF0000"/><path d=" M 0,30 L 0,0 L 30,0 L 30,30 L 0,30" fill="#FF0000"/><path d=" M -37.5,-30 L -30,-30 L -30,0 L -37.5,0 L -37.5,-6 L -52.5,-6 L -52.5,0 L -60,0 L -60,-30 L -52.5,-30 L -52.5,-24 L -37.5,-24 L -37.5,-30" fill="#FF0000"/><path d=" M 67.5,0 L 60,0 L 60,-30 L 67.5,-30 L 67.5,-24 L 82.5,-24 L 82.5,-30 L 90,-30 L 90,0 L 82.5,0 L 82.5,-6 L 67.5,-6 L 67.5,0" fill="#FF0000"/><path d=" M 30,-67.5 L 30,-60 L 0,-60 L 0,-67.5 L 6,-67.5 L 6,-82.5 L 0,-82.5 L 0,-90 L 30,-90 L 30,-82.5 L 24,-82.5 L 24,-67.5 L 30,-67.5" fill="#FF0000"/><path d=" M -67.5,-150 L -60,-150 L -60,-120 L -67.5,-120 L -67.5,-126 L -82.5,-126 L -82.5,-120 L -90,-120 L -90,-150 L -82.5,-150 L -82.5,-144 L -67.5,-144 L -67.5,-150" fill="#FF0000"/><path d=" M -210,-187.5 L -210,-180 L -240,-180 L -240,-187.5 L -234,-187.5 L -234,-202.5 L -240,-202.5 L -240,-210 L -210,-210 L -210,-202.5 L -216,-202.5 L -216,-187.5 L -210,-187.5" fill="#FF0000"/><path d=" M -120,-67.5 L -120,-60 L -150,-60 L -150,-67.5 L -144,-67.5 L -144,-82.5 L -150,-82.5 L -150,-90 L -120,-90 L -120,-82.5 L -126,-82.5 L -126,-67.5 L -120,-67.5" fill="#FF0000"/></clipPath></g><g><path d=" M 0,0"/><path d=" M -19.82,-58.406 L -19.632,-58.219 L -20.782,-57.937 L -23.269,-57.562 L -25.228,-56.481 L -26.659,-54.694 L -27.562,-52.201 L -27.937,-49.002 L -28.219,-47.496 L -28.406,-47.683 L -28.5,-50.458 L -28.5,-58.5 L -22.06,-58.5 L -19.82,-58.406 M 58.406,-54.057 L 58.219,-53.87 L 57.938,-54.313 L 57.563,-55.388 L 56.72,-56.288 L 55.411,-57.013 L 53.635,-57.562 L 51.391,-57.937 L 50.363,-58.219 L 50.55,-58.406 L 52.608,-58.5 L 58.5,-58.5 L 58.5,-55.238 L 58.406,-54.057" fill="#222022"/><path d=" M -61.594,-42.27 L -61.781,-42.082 L -62.062,-44.49 L -62.437,-49.494 L -63.184,-53.341 L -64.302,-56.03 L -65.791,-57.562 L -67.651,-57.937 L -68.487,-58.219 L -68.3,-58.406 L -66.53,-58.5 L -61.5,-58.5 L -61.5,-46.398 L -61.594,-42.27 M -148.406,17.371 L -148.219,17.183 L -147.937,18.741 L -147.562,22.045 L -146.984,24.616 L -146.203,26.455 L -145.219,27.563 L -144.032,27.938 L -143.532,28.219 L -143.719,28.406 L -144.985,28.5 L -148.5,28.5 L -148.5,20.224 L -148.406,17.371 M -71.729,28.406 L -71.917,28.219 L -70.509,27.938 L -67.505,27.563 L -65.159,26.238 L -63.47,23.963 L -62.437,20.739 L -62.062,16.565 L -61.781,14.572 L -61.594,14.759 L -61.5,18.265 L -61.5,28.5 L -69.101,28.5 L -71.729,28.406" fill="#222022"/><path d=" M 101.84,-58.406 L 102.027,-58.219 L 100.601,-57.937 L 97.561,-57.562 L 95.187,-55.968 L 93.479,-53.153 L 92.438,-49.119 L 92.063,-43.866 L 91.781,-41.332 L 91.594,-41.52 L 91.5,-45.835 L 91.5,-58.5 L 99.185,-58.5 L 101.84,-58.406 M 178.406,-51.23 L 178.219,-51.042 L 177.938,-51.957 L 177.563,-53.974 L 176.881,-55.581 L 175.894,-56.777 L 174.601,-57.562 L 173.002,-57.937 L 172.296,-58.219 L 172.483,-58.406 L 174.058,-58.5 L 178.5,-58.5 L 178.5,-53.117 L 178.406,-51.23 M 91.594,11.866 L 91.781,11.678 L 92.063,14.154 L 92.438,19.292 L 93.627,23.24 L 95.631,25.997 L 98.45,27.563 L 102.083,27.938 L 103.806,28.219 L 103.619,28.406 L 100.519,28.5 L 91.5,28.5 L 91.5,16.095 L 91.594,11.866 M 173.829,28.406 L 173.642,28.219 L 174.123,27.938 L 175.274,27.563 L 176.231,25.959 L 176.994,23.128 L 177.563,19.069 L 177.938,13.781 L 178.219,11.231 L 178.406,11.419 L 178.5,15.759 L 178.5,28.5 L 175.067,28.5 L 173.829,28.406" fill="#222022"/><path d=" M -40.98,-178.406 L -40.793,-178.219 L -43.416,-177.937 L -48.85,-177.562 L -53.019,-176.657 L -55.923,-175.221 L -57.562,-173.254 L -57.937,-170.757 L -58.219,-169.602 L -58.406,-169.79 L -58.5,-172.038 L -58.5,-178.5 L -45.431,-178.5 L -40.98,-178.406 M 88.406,-160.325 L 88.219,-160.138 L 87.938,-162.87 L 87.563,-168.522 L 86.406,-172.855 L 84.469,-175.868 L 81.751,-177.562 L 78.252,-177.937 L 76.596,-178.219 L 76.784,-178.406 L 79.783,-178.5 L 88.5,-178.5 L 88.5,-164.939 L 88.406,-160.325 M -58.406,-105.105 L -58.219,-105.293 L -57.937,-103.322 L -57.562,-99.193 L -56.186,-96.003 L -53.809,-93.751 L -50.43,-92.437 L -46.051,-92.062 L -43.954,-91.781 L -44.142,-91.594 L -47.802,-91.5 L -58.5,-91.5 L -58.5,-101.634 L -58.406,-105.105 M 80.132,-91.594 L 79.944,-91.781 L 81.042,-92.062 L 83.425,-92.437 L 85.306,-94.07 L 86.685,-96.96 L 87.563,-101.107 L 87.938,-106.512 L 88.219,-109.121 L 88.406,-108.933 L 88.5,-104.505 L 88.5,-91.5 L 82.294,-91.5 L 80.132,-91.594" fill="#222022"/><path d=" M -253.761,-178.406 L -253.573,-178.219 L -255.733,-177.937 L -260.24,-177.562 L -263.714,-176.708 L -266.155,-175.375 L -267.562,-173.562 L -267.937,-171.27 L -268.219,-170.217 L -268.406,-170.405 L -268.5,-172.499 L -268.5,-178.5 L -257.516,-178.5 L -253.761,-178.406 M -91.594,-166.515 L -91.781,-166.327 L -92.062,-168.028 L -92.437,-171.617 L -93.405,-174.402 L -94.966,-176.384 L -97.12,-177.562 L -99.867,-177.937 L -101.146,-178.219 L -100.959,-178.406 L -98.524,-178.5 L -91.5,-178.5 L -91.5,-169.581 L -91.594,-166.515 M -268.406,-99.534 L -268.219,-99.722 L -267.937,-98.679 L -267.562,-96.408 L -266.461,-94.61 L -264.633,-93.287 L -262.078,-92.437 L -258.797,-92.062 L -257.25,-91.781 L -257.438,-91.594 L -260.274,-91.5 L -268.5,-91.5 L -268.5,-97.455 L -268.406,-99.534 M -103.311,-91.594 L -103.499,-91.781 L -101.827,-92.062 L -98.296,-92.437 L -95.554,-93.485 L -93.601,-95.204 L -92.437,-97.596 L -92.062,-100.66 L -91.781,-102.098 L -91.594,-101.911 L -91.5,-99.238 L -91.5,-91.5 L -100.288,-91.5 L -103.311,-91.594" fill="#222022"/><path d=" M -255.992,-268.406 L -255.805,-268.219 L -257.593,-267.937 L -261.356,-267.562 L -264.272,-266.213 L -266.341,-263.89 L -267.562,-260.592 L -267.937,-256.32 L -268.219,-254.278 L -268.406,-254.465 L -268.5,-258.044 L -268.5,-268.5 L -259.19,-268.5 L -255.992,-268.406 M -181.594,-256.596 L -181.781,-256.409 L -182.062,-258.096 L -182.437,-261.658 L -183.377,-264.423 L -184.882,-266.391 L -186.951,-267.562 L -189.584,-267.937 L -190.807,-268.219 L -190.62,-268.406 L -188.27,-268.5 L -181.5,-268.5 L -181.5,-259.643 L -181.594,-256.596 M -268.406,-219.393 L -268.219,-219.58 L -267.937,-218.561 L -267.562,-216.337 L -266.508,-214.575 L -264.775,-213.275 L -262.362,-212.437 L -259.27,-212.062 L -257.818,-211.781 L -258.005,-211.594 L -260.699,-211.5 L -268.5,-211.5 L -268.5,-217.349 L -268.406,-219.393 M -191.159,-211.594 L -191.346,-211.781 L -190.033,-212.062 L -187.22,-212.437 L -185.016,-213.536 L -183.422,-215.359 L -182.437,-217.906 L -182.062,-221.176 L -181.781,-222.717 L -181.594,-222.53 L -181.5,-219.702 L -181.5,-211.5 L -188.674,-211.5 L -191.159,-211.594" fill="#222022"/></g><g><path d=" M 0,0"/><path d=" M -12.313,-48.948 L -11.865,-49.186 L -11.326,-49.133 L -10.695,-48.787 L -10.297,-48.371 L -10.131,-47.883 L -10.198,-47.324 L -10.498,-46.693 L -10.871,-46.258 L -11.319,-46.02 L -11.84,-45.979 L -12.435,-46.133 L -12.816,-46.454 L -12.982,-46.942 L -12.933,-47.597 L -12.669,-48.418 L -12.313,-48.948" fill="#F8F8F4" stroke="#222022" stroke-width="1.5" stroke-linejoin="round" stroke-linecap="butt"/><path d=" M -20.147,-47.074 L -20.688,-48.836 L -20.219,-50.568 L -18.739,-52.272 L -17.109,-53.271 L -15.327,-53.565 L -13.395,-53.155 L -11.312,-52.039 L -9.999,-50.6 L -9.458,-48.839 L -9.687,-46.755 L -10.688,-44.347 L -12.079,-42.996 L -13.86,-42.702 L -16.032,-43.465 L -18.595,-45.284 L -20.147,-47.074" fill="#F8F8F4" stroke="#222022" stroke-width="1.5" stroke-linejoin="round" stroke-linecap="butt"/><path d=" M -69.213,7.158 L -67.691,7.112 L -66.554,7.731 L -65.801,9.016 L -65.764,10.338 L -66.443,11.696 L -67.839,13.092 L -69.951,14.525 L -71.767,15.265 L -73.289,15.311 L -74.516,14.664 L -75.448,13.323 L -75.574,11.973 L -74.895,10.614 L -73.41,9.246 L -71.119,7.869 L -69.213,7.158" fill="#F8F8F4" stroke="#222022" stroke-width="1.5" stroke-linejoin="round" stroke-linecap="butt"/><path d=" M -143.365,16.315 L -143.268,15.429 L -142.728,14.75 L -141.745,14.276 L -140.83,14.144 L -139.983,14.354 L -139.203,14.907 L -138.491,15.8 L -138.184,16.69 L -138.28,17.576 L -138.781,18.458 L -139.686,19.335 L -140.562,19.669 L -141.409,19.459 L -142.228,18.705 L -143.018,17.407 L -143.365,16.315" fill="#F8F8F4" stroke="#222022" stroke-width="1.5" stroke-linejoin="round" stroke-linecap="butt"/><path d=" M -80.621,8.195 L -80.275,8.04 L -79.876,8.108 L -79.422,8.398 L -79.147,8.73 L -79.048,9.102 L -79.127,9.516 L -79.383,9.972 L -79.684,10.276 L -80.031,10.431 L -80.422,10.435 L -80.858,10.289 L -81.126,10.03 L -81.224,9.657 L -81.154,9.171 L -80.914,8.572 L -80.621,8.195" fill="#F8F8F4" stroke="#222022" stroke-width="1.5" stroke-linejoin="round" stroke-linecap="butt"/><path d=" M -141.187,19.958 L -141.341,19.584 L -141.294,19.243 L -141.045,18.936 L -140.719,18.803 L -140.318,18.845 L -139.84,19.061 L -139.286,19.452 L -138.933,19.834 L -138.779,20.208 L -138.825,20.574 L -139.071,20.931 L -139.395,21.089 L -139.796,21.047 L -140.275,20.806 L -140.832,20.365 L -141.187,19.958" fill="#F8F8F4" stroke="#222022" stroke-width="1.5" stroke-linejoin="round" stroke-linecap="butt"/><path d=" M 153.78,20.399 L 152.473,20.019 L 151.594,19.027 L 151.142,17.423 L 151.187,16.012 L 151.728,14.793 L 152.765,13.767 L 154.298,12.933 L 155.718,12.706 L 157.025,13.086 L 158.218,14.073 L 159.298,15.667 L 159.568,17.073 L 159.027,18.291 L 157.676,19.323 L 155.514,20.167 L 153.78,20.399" fill="#F8F8F4" stroke="#222022" stroke-width="1.5" stroke-linejoin="round" stroke-linecap="butt"/><path d=" M 156,-3 L 156,-27 L 174,-27 L 174,-3 L 156,-3" fill="#F8F8F4" stroke="#222022" stroke-width="1.5" stroke-linejoin="round" stroke-linecap="butt"/><path d=" M 156,-22.5 L 174,-22.5" stroke="#222022" stroke-width="1.5" stroke-linejoin="round" stroke-linecap="butt"/><path d=" M 156,-19.5 L 174,-19.5" stroke="#222022" stroke-width="1.5" stroke-linejoin="round" stroke-linecap="butt"/><path d=" M 156,-10.5 L 174,-10.5" stroke="#222022" stroke-width="1.5" stroke-linejoin="round" stroke-linecap="butt"/><path d=" M 156,-7.5 L 174,-7.5" stroke="#222022" stroke-width="1.5" stroke-linejoin="round" stroke-linecap="butt"/><path d=" M -57.098,-98.887 L -57.062,-99.346 L -56.794,-99.706 L -56.293,-99.966 L -55.822,-100.049 L -55.381,-99.954 L -54.97,-99.681 L -54.588,-99.23 L -54.415,-98.775 L -54.451,-98.316 L -54.695,-97.853 L -55.149,-97.385 L -55.596,-97.198 L -56.038,-97.294 L -56.473,-97.67 L -56.901,-98.329 L -57.098,-98.887" fill="#F8F8F4" stroke="#222022" stroke-width="1.5" stroke-linejoin="round" stroke-linecap="butt"/><path d=" M -40.88,-97.635 L -40.586,-98.248 L -40.107,-98.573 L -39.443,-98.608 L -38.911,-98.352 L -38.51,-97.804 L -38.242,-96.964 L -38.106,-95.832 L -38.185,-94.959 L -38.479,-94.345 L -38.987,-93.991 L -39.71,-93.896 L -40.272,-94.122 L -40.672,-94.671 L -40.911,-95.541 L -40.988,-96.732 L -40.88,-97.635" fill="#F8F8F4" stroke="#222022" stroke-width="1.5" stroke-linejoin="round" stroke-linecap="butt"/><path d=" M -56.369,-106.36 L -56.21,-106.692 L -55.871,-106.894 L -55.354,-106.964 L -54.941,-106.892 L -54.634,-106.678 L -54.432,-106.322 L -54.335,-105.824 L -54.367,-105.408 L -54.526,-105.076 L -54.813,-104.827 L -55.228,-104.661 L -55.589,-104.685 L -55.896,-104.899 L -56.149,-105.303 L -56.349,-105.897 L -56.369,-106.36" fill="#F8F8F4" stroke="#222022" stroke-width="1.5" stroke-linejoin="round" stroke-linecap="butt"/><path d=" M 78.211,-169.332 L 77.554,-169.975 L 77.347,-170.847 L 77.59,-171.947 L 78.067,-172.774 L 78.778,-173.328 L 79.723,-173.608 L 80.903,-173.615 L 81.821,-173.297 L 82.479,-172.653 L 82.875,-171.684 L 83.01,-170.39 L 82.722,-169.466 L 82.01,-168.913 L 80.876,-168.729 L 79.318,-168.917 L 78.211,-169.332" fill="#F8F8F4" stroke="#222022" stroke-width="1.5" stroke-linejoin="round" stroke-linecap="butt"/><path d=" M -133.946,-173.875 L -133.563,-173.878 L -133.245,-173.681 L -132.994,-173.285 L -132.892,-172.901 L -132.939,-172.528 L -133.136,-172.167 L -133.482,-171.818 L -133.847,-171.642 L -134.23,-171.639 L -134.632,-171.809 L -135.052,-172.151 L -135.239,-172.509 L -135.191,-172.882 L -134.91,-173.269 L -134.395,-173.672 L -133.946,-173.875" fill="#F8F8F4" stroke="#222022" stroke-width="1.5" stroke-linejoin="round" stroke-linecap="butt"/><path d=" M -262.734,-108.602 L -262.501,-108.996 L -262.059,-109.209 L -261.41,-109.239 L -260.907,-109.104 L -260.55,-108.806 L -260.339,-108.343 L -260.273,-107.715 L -260.358,-107.204 L -260.591,-106.81 L -260.974,-106.533 L -261.506,-106.372 L -261.951,-106.441 L -262.308,-106.74 L -262.578,-107.268 L -262.76,-108.026 L -262.734,-108.602" fill="#F8F8F4" stroke="#222022" stroke-width="1.5" stroke-linejoin="round" stroke-linecap="butt"/><path d=" M -109.438,-164.568 L -108.869,-164.941 L -108.206,-164.953 L -107.449,-164.602 L -106.927,-164.126 L -106.64,-163.524 L -106.587,-162.796 L -106.769,-161.942 L -107.145,-161.329 L -107.715,-160.956 L -108.478,-160.823 L -109.435,-160.931 L -110.057,-161.286 L -110.345,-161.888 L -110.297,-162.737 L -109.914,-163.833 L -109.438,-164.568" fill="#F8F8F4" stroke="#222022" stroke-width="1.5" stroke-linejoin="round" stroke-linecap="butt"/><path d=" M -243.491,-124.011 L -243.029,-124.516 L -242.387,-124.693 L -241.563,-124.54 L -240.936,-124.207 L -240.506,-123.692 L -240.273,-122.997 L -240.237,-122.12 L -240.45,-121.429 L -240.912,-120.924 L -241.622,-120.604 L -242.581,-120.471 L -243.275,-120.661 L -243.705,-121.176 L -243.87,-122.014 L -243.771,-123.177 L -243.491,-124.011" fill="#F8F8F4" stroke="#222022" stroke-width="1.5" stroke-linejoin="round" stroke-linecap="butt"/><path d=" M -255.345,-261.373 L -256.274,-262.357 L -256.516,-263.783 L -256.073,-265.651 L -255.281,-266.97 L -254.142,-267.74 L -252.655,-267.962 L -250.82,-267.635 L -249.439,-266.98 L -248.51,-265.995 L -248.035,-264.683 L -248.014,-263.041 L -248.572,-261.836 L -249.711,-261.065 L -251.431,-260.73 L -253.731,-260.831 L -255.345,-261.373" fill="#F8F8F4" stroke="#222022" stroke-width="1.5" stroke-linejoin="round" stroke-linecap="butt"/><path d=" M -188.825,-211.429 L -189.215,-211.726 L -189.381,-212.173 L -189.325,-212.769 L -189.127,-213.237 L -188.788,-213.576 L -188.307,-213.786 L -187.685,-213.868 L -187.179,-213.76 L -186.79,-213.463 L -186.517,-212.977 L -186.361,-212.303 L -186.452,-211.796 L -186.792,-211.457 L -187.379,-211.286 L -188.213,-211.282 L -188.825,-211.429" fill="#F8F8F4" stroke="#222022" stroke-width="1.5" stroke-linejoin="round" stroke-linecap="butt"/><path d=" M -270,-270 L -180,-270 L -180.865,-261.221 L -183.425,-252.779 L -187.584,-244.999 L -193.18,-238.18 L -199.999,-232.584 L -207.779,-228.425 L -216.221,-225.865 L -225,-225 L -233.779,-225.865 L -242.221,-228.425 L -250.001,-232.584 L -256.82,-238.18 L -262.416,-244.999 L -266.575,-252.779 L -269.135,-261.221 L -270,-270" fill="#F8F8F4"/><path d=" M -180,-270 L -180.865,-261.221 L -183.425,-252.779 L -187.584,-244.999 L -193.18,-238.18 L -199.999,-232.584 L -207.779,-228.425 L -216.221,-225.865 L -225,-225 L -233.779,-225.865 L -242.221,-228.425 L -250.001,-232.584 L -256.82,-238.18 L -262.416,-244.999 L -266.575,-252.779 L -269.135,-261.221 L -270,-270" stroke="#222022" stroke-width="1.5" stroke-linejoin="round" stroke-linecap="butt"/><path d=" M -187.5,-270 L -188.221,-262.684 L -190.355,-255.649 L -193.82,-249.166 L -198.483,-243.483 L -204.166,-238.82 L -210.649,-235.355 L -217.684,-233.221 L -225,-232.5 L -232.316,-233.221 L -239.351,-235.355 L -245.834,-238.82 L -251.517,-243.483 L -256.18,-249.166 L -259.645,-255.649 L -261.779,-262.684 L -262.5,-270" stroke="#222022" stroke-width="1.5" stroke-linejoin="round" stroke-linecap="butt"/><path d=" M -217.5,-249 L -232.5,-249 L -232.5,-261 L -217.5,-261 L -217.5,-249" fill="#F8F8F4" stroke="#222022" stroke-width="1.5" stroke-linejoin="round" stroke-linecap="butt"/><path d=" M -220.5,-247.5 L -229.5,-247.5 L -229.5,-256.5 L -220.5,-256.5 L -220.5,-247.5" fill="#F8F8F4" stroke="#222022" stroke-width="1.5" stroke-linejoin="round" stroke-linecap="butt"/></g><g transform="translate(0.523 5.977)" style="mix-blend-mode: multiply" clip-path="url(#instance2766)"><path d=" M 0,0"/><path d=" M -30,0 L -30,-60 L 60,-60 L 60,0 L -30,0 M -150,30 L -150,-60 L -60,-60 L -60,30 L -150,30 M 90,30 L 90,-60 L 180,-60 L 180,30 L 90,30 M -60,-90 L -60,-180 L 90,-180 L 90,-90 L -60,-90 M -270,-90 L -270,-180 L -90,-180 L -90,-90 L -270,-90 M -270,-210 L -270,-270 L -180,-270 L -180,-210 L -270,-210 M 0,30 L 0,0 L 30,0 L 30,30 L 0,30 M -37.5,-30 L -30,-30 L -30,0 L -37.5,0 L -37.5,-6 L -52.5,-6 L -52.5,0 L -60,0 L -60,-30 L -52.5,-30 L -52.5,-24 L -37.5,-24 L -37.5,-30 M 67.5,0 L 60,0 L 60,-30 L 67.5,-30 L 67.5,-24 L 82.5,-24 L 82.5,-30 L 90,-30 L 90,0 L 82.5,0 L 82.5,-6 L 67.5,-6 L 67.5,0 M 30,-67.5 L 30,-60 L 0,-60 L 0,-67.5 L 6,-67.5 L 6,-82.5 L 0,-82.5 L 0,-90 L 30,-90 L 30,-82.5 L 24,-82.5 L 24,-67.5 L 30,-67.5 M -67.5,-150 L -60,-150 L -60,-120 L -67.5,-120 L -67.5,-126 L -82.5,-126 L -82.5,-120 L -90,-120 L -90,-150 L -82.5,-150 L -82.5,-144 L -67.5,-144 L -67.5,-150 M -210,-187.5 L -210,-180 L -240,-180 L -240,-187.5 L -234,-187.5 L -234,-202.5 L -240,-202.5 L -240,-210 L -210,-210 L -210,-202.5 L -216,-202.5 L -216,-187.5 L -210,-187.5 M -120,-67.5 L -120,-60 L -150,-60 L -150,-67.5 L -144,-67.5 L -144,-82.5 L -150,-82.5 L -150,-90 L -120,-90 L -120,-82.5 L -126,-82.5 L -126,-67.5 L -120,-67.5" stroke="#CCCCCC" stroke-width="13.2" stroke-linejoin="round" stroke-linecap="butt"/><path d=" M -30,0 L -30,-60 L 60,-60 L 60,0 L -30,0" fill="#FFFFFF"/><path d=" M -150,30 L -150,-60 L -60,-60 L -60,30 L -150,30" fill="#FFFFFF"/><path d=" M 90,30 L 90,-60 L 180,-60 L 180,30 L 90,30" fill="#FFFFFF"/><path d=" M -60,-90 L -60,-180 L 90,-180 L 90,-90 L -60,-90" fill="#FFFFFF"/><path d=" M -270,-90 L -270,-180 L -90,-180 L -90,-90 L -270,-90" fill="#FFFFFF"/><path d=" M -270,-210 L -270,-270 L -180,-270 L -180,-210 L -270,-210" fill="#FFFFFF"/><path d=" M 0,30 L 0,0 L 30,0 L 30,30 L 0,30" fill="#FFFFFF"/><path d=" M -37.5,-30 L -30,-30 L -30,0 L -37.5,0 L -37.5,-6 L -52.5,-6 L -52.5,0 L -60,0 L -60,-30 L -52.5,-30 L -52.5,-24 L -37.5,-24 L -37.5,-30" fill="#FFFFFF"/><path d=" M 67.5,0 L 60,0 L 60,-30 L 67.5,-30 L 67.5,-24 L 82.5,-24 L 82.5,-30 L 90,-30 L 90,0 L 82.5,0 L 82.5,-6 L 67.5,-6 L 67.5,0" fill="#FFFFFF"/><path d=" M 30,-67.5 L 30,-60 L 0,-60 L 0,-67.5 L 6,-67.5 L 6,-82.5 L 0,-82.5 L 0,-90 L 30,-90 L 30,-82.5 L 24,-82.5 L 24,-67.5 L 30,-67.5" fill="#FFFFFF"/><path d=" M -67.5,-150 L -60,-150 L -60,-120 L -67.5,-120 L -67.5,-126 L -82.5,-126 L -82.5,-120 L -90,-120 L -90,-150 L -82.5,-150 L -82.5,-144 L -67.5,-144 L -67.5,-150" fill="#FFFFFF"/><path d=" M -210,-187.5 L -210,-180 L -240,-180 L -240,-187.5 L -234,-187.5 L -234,-202.5 L -240,-202.5 L -240,-210 L -210,-210 L -210,-202.5 L -216,-202.5 L -216,-187.5 L -210,-187.5" fill="#FFFFFF"/><path d=" M -120,-67.5 L -120,-60 L -150,-60 L -150,-67.5 L -144,-67.5 L -144,-82.5 L -150,-82.5 L -150,-90 L -120,-90 L -120,-82.5 L -126,-82.5 L -126,-67.5 L -120,-67.5" fill="#FFFFFF"/><clipPath id="instance2766" fill="#FFFFFF" transform="translate(-0.523 -5.977)"><path d=" M 0,0"/><path d=" M -30,0 L -30,-60 L 60,-60 L 60,0 L -30,0" fill="#FF0000"/><path d=" M -150,30 L -150,-60 L -60,-60 L -60,30 L -150,30" fill="#FF0000"/><path d=" M 90,30 L 90,-60 L 180,-60 L 180,30 L 90,30" fill="#FF0000"/><path d=" M -60,-90 L -60,-180 L 90,-180 L 90,-90 L -60,-90" fill="#FF0000"/><path d=" M -270,-90 L -270,-180 L -90,-180 L -90,-90 L -270,-90" fill="#FF0000"/><path d=" M -270,-210 L -270,-270 L -180,-270 L -180,-210 L -270,-210" fill="#FF0000"/><path d=" M 0,30 L 0,0 L 30,0 L 30,30 L 0,30" fill="#FF0000"/><path d=" M -37.5,-30 L -30,-30 L -30,0 L -37.5,0 L -37.5,-6 L -52.5,-6 L -52.5,0 L -60,0 L -60,-30 L -52.5,-30 L -52.5,-24 L -37.5,-24 L -37.5,-30" fill="#FF0000"/><path d=" M 67.5,0 L 60,0 L 60,-30 L 67.5,-30 L 67.5,-24 L 82.5,-24 L 82.5,-30 L 90,-30 L 90,0 L 82.5,0 L 82.5,-6 L 67.5,-6 L 67.5,0" fill="#FF0000"/><path d=" M 30,-67.5 L 30,-60 L 0,-60 L 0,-67.5 L 6,-67.5 L 6,-82.5 L 0,-82.5 L 0,-90 L 30,-90 L 30,-82.5 L 24,-82.5 L 24,-67.5 L 30,-67.5" fill="#FF0000"/><path d=" M -67.5,-150 L -60,-150 L -60,-120 L -67.5,-120 L -67.5,-126 L -82.5,-126 L -82.5,-120 L -90,-120 L -90,-150 L -82.5,-150 L -82.5,-144 L -67.5,-144 L -67.5,-150" fill="#FF0000"/><path d=" M -210,-187.5 L -210,-180 L -240,-180 L -240,-187.5 L -234,-187.5 L -234,-202.5 L -240,-202.5 L -240,-210 L -210,-210 L -210,-202.5 L -216,-202.5 L -216,-187.5 L -210,-187.5" fill="#FF0000"/><path d=" M -120,-67.5 L -120,-60 L -150,-60 L -150,-67.5 L -144,-67.5 L -144,-82.5 L -150,-82.5 L -150,-90 L -120,-90 L -120,-82.5 L -126,-82.5 L -126,-67.5 L -120,-67.5" fill="#FF0000"/></clipPath></g><g><path d=" M 0,0"/><path d=" M 27,24 L 3,24 M 24,18 L 6,18 M 21,12 L 9,12 M 18,6 L 12,6" stroke="#222022" stroke-width="1.5" stroke-linejoin="round" stroke-linecap="butt"/><path d=" M -48.75,-25.5 L -41.25,-25.5 L -41.25,-4.5 L -48.75,-4.5 L -48.75,-25.5" fill="#F8F8F4" stroke="#222022" stroke-width="3" stroke-linejoin="round" stroke-linecap="butt"/><path d=" M 71.25,-25.5 L 78.75,-25.5 L 78.75,-4.5 L 71.25,-4.5 L 71.25,-25.5" fill="#F8F8F4" stroke="#222022" stroke-width="3" stroke-linejoin="round" stroke-linecap="butt"/><path d=" M 4.5,-78.75 L 25.5,-78.75 L 25.5,-71.25 L 4.5,-71.25 L 4.5,-78.75 M 15,-71.25 L 15,-78.75" fill="#F8F8F4" stroke="#222022" stroke-width="3" stroke-linejoin="round" stroke-linecap="butt"/><path d=" M -78.75,-145.5 L -71.25,-145.5 L -71.25,-124.5 L -78.75,-124.5 L -78.75,-145.5" fill="#F8F8F4" stroke="#222022" stroke-width="3" stroke-linejoin="round" stroke-linecap="butt"/><path d=" M -127.5,-75 Q -127.5,-74.379 -127.939,-73.939 Q -128.379,-73.5 -129,-73.5 L -129,-73.5 Q -129.621,-73.5 -130.061,-73.939 Q -130.5,-74.379 -130.5,-75 L -130.5,-75 Q -130.5,-75.621 -130.061,-76.061 Q -129.621,-76.5 -129,-76.5 L -129,-76.5 Q -128.379,-76.5 -127.939,-76.061 Q -127.5,-75.621 -127.5,-75 L -127.5,-75 M -133.5,-75 Q -133.5,-74.379 -133.939,-73.939 Q -134.379,-73.5 -135,-73.5 L -135,-73.5 Q -135.621,-73.5 -136.061,-73.939 Q -136.5,-74.379 -136.5,-75 L -136.5,-75 Q -136.5,-75.621 -136.061,-76.061 Q -135.621,-76.5 -135,-76.5 L -135,-76.5 Q -134.379,-76.5 -133.939,-76.061 Q -133.5,-75.621 -133.5,-75 L -133.5,-75 M -139.5,-75 Q -139.5,-74.379 -139.939,-73.939 Q -140.379,-73.5 -141,-73.5 L -141,-73.5 Q -141.621,-73.5 -142.061,-73.939 Q -142.5,-74.379 -142.5,-75 L -142.5,-75 Q -142.5,-75.621 -142.061,-76.061 Q -141.621,-76.5 -141,-76.5 L -141,-76.5 Q -140.379,-76.5 -139.939,-76.061 Q -139.5,-75.621 -139.5,-75 L -139.5,-75" fill="#222022"/></g></g><g transform="translate(925.727 520.427)"><path d=" M 0,0"/><text dominant-baseline="text-before-edge" style="font: bold 30px Neuton" fill="#222022" transform="translate(-6.541 -18.977)">1</text></g><g transform="translate(800.711 655.078)"><path d=" M 0,0"/><text dominant-baseline="text-before-edge" style="font: bold 30px Neuton" fill="#222022" transform="translate(-7.683 -18.977)">2</text></g><g transform="translate(596.228 588.658)"><path d=" M 0,0"/><text dominant-baseline="text-before-edge" style="font: bold 30px Neuton" fill="#222022" transform="translate(-7.734 -18.977)">3</text></g><g transform="translate(823.183 398.22)"><path d=" M 0,0"/><text dominant-baseline="text-before-edge" style="font: bold 30px Neuton" fill="#222022" transform="translate(-8.862 -18.977)">4</text></g><g transform="translate(1080.041 420.692)"><path d=" M 0,0"/><text dominant-baseline="text-before-edge" style="font: bold 30px Neuton" fill="#222022" transform="translate(-6.746 -18.977)">5</text></g><g transform="translate(441.31 510.399)"><path d=" M 0,0"/><text dominant-baseline="text-before-edge" style="font: bold 30px Neuton" fill="#222022" transform="translate(-7.661 -18.977)">6</text></g></g></svg>